<svg xmlns="http://www.w3.org/2000/svg" xmlns:xlink="http://www.w3.org/1999/xlink" width="100" zoomAndPan="magnify" viewBox="0 0 75 74.999997" height="100" preserveAspectRatio="xMidYMid meet" version="1.0"><defs><clipPath id="76733fc507"><path d="M 2.316406 0 L 72.816406 0 L 72.816406 75 L 2.316406 75 Z M 2.316406 0 " clip-rule="nonzero"/></clipPath><clipPath id="0620099d10"><path d="M 37 0 L 72.816406 0 L 72.816406 75 L 37 75 Z M 37 0 " clip-rule="nonzero"/></clipPath></defs><g clip-path="url(#76733fc507)"><path fill="#e23237" d="M 2.316406 12.570312 L 37.082031 0.222656 L 72.761719 12.378906 L 66.996094 58.261719 L 37.082031 74.777344 L 7.65625 58.476562 Z M 2.316406 12.570312 " fill-opacity="1" fill-rule="nonzero"/></g><g clip-path="url(#0620099d10)"><path fill="#b52e31" d="M 72.761719 12.378906 L 37.082031 0.222656 L 37.082031 74.777344 L 66.996094 58.261719 Z M 72.761719 12.378906 " fill-opacity="1" fill-rule="nonzero"/></g><path fill="#ffffff" d="M 37.136719 8.9375 L 15.472656 57.023438 L 23.558594 56.859375 L 27.921875 45.996094 L 47.296875 45.996094 L 52.042969 56.945312 L 59.75 57.109375 Z M 37.191406 24.375 L 44.519531 39.648438 L 30.796875 39.648438 L 37.210938 24.375 Z M 37.191406 24.375 " fill-opacity="1" fill-rule="nonzero"/></svg>