<svg xmlns="http://www.w3.org/2000/svg" xmlns:xlink="http://www.w3.org/1999/xlink" width="100" zoomAndPan="magnify" viewBox="0 0 75 74.999997" height="100" preserveAspectRatio="xMidYMid meet" version="1.0">
  <defs>
    <clipPath id="feeeaaf499">
      <path d="M 0 11.351562 L 75 11.351562 L 75 58.996094 L 0 58.996094 Z M 0 11.351562 " clip-rule="nonzero"/>
    </clipPath>
  </defs>
  <g clip-path="url(#feeeaaf499)">
    <path fill="#d9d9d9" d="M 71.921875 40.964844 L 45.984375 14.871094 C 41.300781 10.175781 33.699219 10.175781 29.015625 14.871094 L 3.078125 40.972656 C 1.027344 43.035156 0 45.734375 0 48.441406 C 0 51.140625 1.027344 53.847656 3.078125 55.910156 C 7.171875 60.027344 13.824219 60.027344 17.925781 55.910156 L 37.5 36.21875 L 57.074219 55.910156 C 61.175781 60.027344 67.820312 60.027344 71.921875 55.910156 C 76.023438 51.785156 76.023438 45.09375 71.921875 40.972656 L 71.921875 40.964844 " fill-opacity="1" fill-rule="nonzero"/>
  </g>
</svg>
