<?xml version="1.0" encoding="utf-8"?>
<!-- Generator: Adobe Illustrator 22.0.1, SVG Export Plug-In . SVG Version: 6.00 Build 0)  -->
<svg version="1.1" id="Camada_1" xmlns="http://www.w3.org/2000/svg" xmlns:xlink="http://www.w3.org/1999/xlink" x="0px" y="0px"
	 viewBox="0 0 1000 354.2" style="enable-background:new 0 0 1000 354.2;" xml:space="preserve">
<style type="text/css">
	.st0{fill:#232526;}
	.st1{fill:url(#SVGID_1_);}
	.st2{fill:url(#SVGID_2_);}
</style>
<g>
	<path class="st0" d="M457.3,37.1h36.5l72.8,189h-37.4l-14.8-38.9h-77.2l-15.4,38.9h-37.4L457.3,37.1z M475.8,87.2l-25.4,64.9H501
		L475.8,87.2z"/>
	<path class="st0" d="M568.5,37.1h104.6v35.5h-34.5v153.5H602V72.6h-33.6L568.5,37.1L568.5,37.1z"/>
	<path class="st0" d="M690.4,37.1h36v154.7h52.5v34.3h-88.5V37.1z"/>
	<path class="st0" d="M856.7,37.1h36.5l72.8,189h-37.4l-14.8-38.9h-77.2l-15.4,38.9h-37.4L856.7,37.1z M875.2,87.2l-25.4,64.9h50.6
		L875.2,87.2z"/>
</g>
<g>
	<linearGradient id="SVGID_1_" gradientUnits="userSpaceOnUse" x1="68.741" y1="33.5054" x2="330.6012" y2="295.3657">
		<stop  offset="0" style="stop-color:#CB2D3E"/>
		<stop  offset="1" style="stop-color:#CB2D3E"/>
	</linearGradient>
	<path class="st1" d="M245.4,110.2c-40.7,25.8-74.2,61.3-97.4,103.4v-78.8c0-23.1,18.8-41.9,42-41.9h21.4
		C224.9,92.7,237.4,99.2,245.4,110.2z"/>
	<linearGradient id="SVGID_2_" gradientUnits="userSpaceOnUse" x1="48.5337" y1="25.7722" x2="348.2254" y2="325.4639">
		<stop  offset="0" style="stop-color:#CB2D3E"/>
		<stop  offset="1" style="stop-color:#CB2D3E"/>
	</linearGradient>
	<path class="st2" d="M199.4,11.1C108,11.1,33.9,85.2,33.9,176.6c0,91.4,74.1,165.5,165.5,165.5c91.4,0,165.5-74.1,165.5-165.5
		C364.9,85.2,290.8,11.1,199.4,11.1z M121.2,134.7c0-37.9,30.9-68.7,68.8-68.7h21.4c22.9,0,44.6,11.8,57.3,30.9
		c8.3-4.3,16.9-8.1,25.4-11.4l4.3-1.6v28.7l-1.9,0.8c-6,2.5-12,5.3-17.8,8.4c0.8,4.3,1.3,8.6,1.3,13V287h-26.6V136.9
		c-13.7,9.3-26.5,19.9-38.2,31.6c-32.4,32.4-55.6,72.7-67.2,116.4l-0.1,0.3l-1,2.1h-25.6V134.7z"/>
</g>
<g>
	<path class="st0" d="M457.5,37.2H494l72.8,188.9h-37.4l-14.8-38.9h-77.2l-15.4,38.9h-37.4L457.5,37.2z M475.9,87.2l-25.4,64.9h50.6
		L475.9,87.2z"/>
	<path class="st0" d="M568.6,37.2h104.6v35.4h-34.5v153.5h-36.5V72.6h-33.6V37.2z"/>
	<path class="st0" d="M690.5,37.2h36v154.6H779v34.3h-88.5V37.2z"/>
	<path class="st0" d="M856.7,37.2h36.5L966,226.1h-37.4l-14.8-38.9h-77.2l-15.4,38.9h-37.4L856.7,37.2z M875.2,87.2l-25.4,64.9h50.6
		L875.2,87.2z"/>
</g>
<g>
	<path class="st0" d="M684.9,254.2h34.8v5.9h-28.7v19h28.5v5.9h-28.5V309h28.5v5.9h-34.6V254.2z"/>
	<path class="st0" d="M727.8,314.9v-60.7h1.3l40.4,46.6v-46.6h6v60.7h-1.4l-40.1-46v46H727.8z"/>
	<path class="st0" d="M781.7,303.6l5.2-3.1c3.6,6.7,7.8,10,12.6,10c2,0,4-0.5,5.7-1.4c1.8-0.9,3.2-2.2,4.1-3.8
		c0.9-1.6,1.4-3.3,1.4-5.1c0-2-0.7-4-2.1-6c-1.9-2.7-5.4-5.9-10.4-9.7c-5.1-3.8-8.2-6.6-9.5-8.3c-2.1-2.9-3.2-6-3.2-9.3
		c0-2.6,0.6-5.1,1.9-7.2s3-3.9,5.3-5.1c2.3-1.3,4.8-1.9,7.5-1.9c2.9,0,5.5,0.7,8,2.1c2.5,1.4,5.1,4,7.9,7.8l-5,3.8
		c-2.3-3-4.2-5-5.8-6c-1.6-1-3.4-1.4-5.3-1.4c-2.4,0-4.5,0.7-6,2.2c-1.6,1.5-2.3,3.3-2.3,5.5c0,1.3,0.3,2.6,0.8,3.8
		c0.6,1.2,1.6,2.6,3,4c0.8,0.8,3.4,2.8,7.8,6.1c5.3,3.9,8.9,7.3,10.8,10.4c2,3,2.9,6.1,2.9,9.1c0,4.4-1.7,8.2-5,11.5
		c-3.3,3.2-7.4,4.9-12.2,4.9c-3.7,0-7-1-10-3C787,311.6,784.2,308.3,781.7,303.6z"/>
	<path class="st0" d="M826.9,254.2h6.1v60.7h-6.1V254.2z"/>
	<path class="st0" d="M844.5,314.9v-60.7h1.3l40.4,46.6v-46.6h6v60.7h-1.4l-40.1-46v46H844.5z"/>
	<path class="st0" d="M933.6,252.7c9.2,0,16.9,3.1,23.1,9.2c6.2,6.1,9.3,13.7,9.3,22.7c0,8.9-3.1,16.4-9.3,22.6
		c-6.2,6.2-13.7,9.3-22.6,9.3c-9,0-16.6-3.1-22.8-9.2c-6.2-6.2-9.3-13.6-9.3-22.4c0-5.8,1.4-11.2,4.2-16.2c2.8-5,6.7-8.9,11.5-11.7
		C922.7,254.1,927.9,252.7,933.6,252.7z M933.9,258.6c-4.5,0-8.8,1.2-12.8,3.5c-4,2.3-7.2,5.5-9.4,9.5c-2.3,4-3.4,8.4-3.4,13.3
		c0,7.2,2.5,13.3,7.5,18.3c5,5,11,7.5,18.1,7.5c4.7,0,9.1-1.1,13.1-3.4c4-2.3,7.1-5.4,9.4-9.4c2.2-4,3.4-8.4,3.4-13.2
		c0-4.8-1.1-9.2-3.4-13.1c-2.2-3.9-5.4-7-9.5-9.4C942.8,259.7,938.5,258.6,933.9,258.6z"/>
</g>
</svg>
