<svg xmlns="http://www.w3.org/2000/svg" xmlns:xlink="http://www.w3.org/1999/xlink" width="100" zoomAndPan="magnify"
  viewBox="0 0 75 74.999997" height="100" preserveAspectRatio="xMidYMid meet" version="1.0">
  <defs>
    <clipPath id="e12a9af1bb">
      <path d="M 3 40 L 73.761719 40 L 73.761719 72.707031 L 3 72.707031 Z M 3 40 " clip-rule="nonzero" />
    </clipPath>
    <clipPath id="06fae052da">
      <path d="M 1.011719 2.207031 L 72 2.207031 L 72 65 L 1.011719 65 Z M 1.011719 2.207031 " clip-rule="nonzero" />
    </clipPath>
  </defs>
  <g clip-path="url(#e12a9af1bb)">
    <path fill="#ffffff"
      d="M 66.066406 56.628906 C 64.710938 56.316406 63.269531 56.121094 61.816406 56.121094 C 59.335938 56.121094 57.058594 56.550781 55.386719 57.25 C 55.179688 57.351562 55.074219 57.519531 55.074219 57.753906 C 55.074219 57.832031 55.089844 57.910156 55.125 57.984375 C 55.320312 58.554688 54.996094 59.175781 53.378906 59.535156 C 50.980469 60.0625 49.464844 62.542969 48.601562 63.375 C 47.582031 64.34375 44.710938 64.9375 45.140625 64.359375 C 45.480469 63.910156 46.773438 62.503906 47.558594 60.972656 C 48.265625 59.613281 48.890625 59.226562 49.753906 57.925781 C 50.007812 57.550781 50.988281 56.210938 51.273438 55.152344 C 51.59375 54.125 51.484375 52.828125 51.609375 52.296875 C 51.785156 51.527344 52.511719 49.855469 52.5625 48.90625 C 52.59375 48.371094 50.34375 49.667969 49.273438 49.667969 C 48.207031 49.667969 47.164062 49.023438 46.210938 48.988281 C 45.027344 48.933594 44.269531 49.890625 43.199219 49.734375 C 42.589844 49.636719 42.074219 49.097656 41.007812 49.054688 C 39.488281 49 37.632812 49.902344 34.148438 49.789062 C 30.71875 49.675781 27.550781 45.449219 27.121094 44.777344 C 26.613281 43.988281 25.996094 43.988281 25.320312 44.605469 C 24.644531 45.226562 23.8125 44.738281 23.578125 44.324219 C 23.125 43.539062 21.925781 41.234375 20.0625 40.75 C 17.484375 40.070312 16.183594 42.179688 16.339844 43.847656 C 16.511719 45.542969 17.601562 46.015625 18.109375 46.917969 C 18.617188 47.816406 18.875 48.386719 19.828125 48.796875 C 20.503906 49.078125 20.753906 49.496094 20.554688 50.054688 C 20.375 50.535156 19.675781 50.644531 19.199219 50.667969 C 18.21875 50.714844 17.53125 50.449219 17.03125 50.125 C 16.445312 49.753906 15.972656 49.234375 15.449219 48.355469 C 14.859375 47.386719 13.933594 46.964844 12.851562 46.964844 C 12.335938 46.964844 11.855469 47.101562 11.425781 47.320312 C 9.734375 48.207031 7.707031 48.726562 5.546875 48.726562 L 3.097656 48.730469 C 7.839844 62.683594 20.996094 72.730469 36.507812 72.730469 C 48.894531 72.730469 59.789062 66.320312 66.066406 56.628906 M 71.703125 52.84375 C 71.46875 52.84375 71.242188 52.890625 71.023438 52.980469 C 70.804688 53.070312 70.613281 53.199219 70.445312 53.367188 C 70.277344 53.535156 70.148438 53.726562 70.058594 53.945312 C 69.96875 54.164062 69.921875 54.390625 69.921875 54.628906 C 69.921875 54.863281 69.96875 55.09375 70.058594 55.3125 C 70.148438 55.53125 70.277344 55.722656 70.445312 55.890625 C 70.613281 56.058594 70.804688 56.1875 71.023438 56.277344 C 71.242188 56.367188 71.46875 56.410156 71.703125 56.410156 C 71.9375 56.410156 72.164062 56.363281 72.382812 56.269531 C 72.597656 56.179688 72.789062 56.050781 72.953125 55.882812 C 73.121094 55.71875 73.246094 55.523438 73.335938 55.308594 C 73.425781 55.089844 73.472656 54.863281 73.472656 54.628906 C 73.472656 54.390625 73.425781 54.164062 73.335938 53.945312 C 73.246094 53.730469 73.117188 53.535156 72.949219 53.367188 C 72.785156 53.203125 72.589844 53.074219 72.375 52.980469 C 72.15625 52.890625 71.929688 52.847656 71.691406 52.84375 Z M 71.703125 53.160156 C 71.898438 53.164062 72.085938 53.199219 72.265625 53.277344 C 72.441406 53.351562 72.601562 53.457031 72.738281 53.59375 C 72.875 53.730469 72.980469 53.890625 73.054688 54.070312 C 73.128906 54.25 73.164062 54.4375 73.164062 54.628906 C 73.164062 55.441406 72.511719 56.09375 71.703125 56.09375 C 71.511719 56.09375 71.324219 56.058594 71.144531 55.984375 C 70.964844 55.910156 70.804688 55.804688 70.667969 55.667969 C 70.53125 55.527344 70.425781 55.371094 70.351562 55.191406 C 70.273438 55.011719 70.238281 54.824219 70.238281 54.628906 C 70.238281 54.4375 70.273438 54.25 70.347656 54.066406 C 70.421875 53.886719 70.527344 53.730469 70.667969 53.589844 C 70.804688 53.453125 70.964844 53.347656 71.144531 53.273438 C 71.324219 53.199219 71.511719 53.160156 71.703125 53.160156 Z M 71.101562 53.71875 L 71.101562 55.527344 L 71.375 55.527344 L 71.375 54.738281 L 71.695312 54.738281 L 72.171875 55.527344 L 72.480469 55.527344 L 71.960938 54.734375 C 72.234375 54.699219 72.4375 54.5625 72.4375 54.238281 C 72.4375 53.875 72.222656 53.71875 71.796875 53.71875 Z M 71.375 53.949219 L 71.753906 53.949219 C 71.945312 53.949219 72.148438 53.992188 72.148438 54.21875 C 72.148438 54.496094 71.941406 54.515625 71.695312 54.515625 L 71.367188 54.515625 Z M 71.375 53.949219 "
      fill-opacity="1" fill-rule="nonzero" />
  </g>
  <g clip-path="url(#06fae052da)">
    <path fill="#100f0d"
      d="M 36.511719 2.179688 C 17.066406 2.179688 1.300781 17.972656 1.300781 37.457031 C 1.296875 41.316406 1.910156 45.078125 3.140625 48.734375 L 5.585938 48.734375 C 7.757812 48.734375 9.773438 48.210938 11.46875 47.328125 C 11.914062 47.09375 12.390625 46.972656 12.894531 46.972656 C 13.976562 46.972656 14.902344 47.394531 15.492188 48.363281 C 16 49.242188 16.472656 49.757812 17.070312 50.128906 C 17.574219 50.449219 18.261719 50.71875 19.242188 50.671875 C 19.695312 50.648438 20.40625 50.535156 20.597656 50.054688 C 20.796875 49.488281 20.546875 49.078125 19.871094 48.8125 C 18.917969 48.414062 18.660156 47.828125 18.152344 46.929688 C 17.648438 46.03125 16.554688 45.550781 16.382812 43.859375 C 16.214844 42.191406 17.519531 40.09375 20.105469 40.765625 C 21.96875 41.246094 23.167969 43.554688 23.621094 44.339844 C 23.84375 44.753906 24.6875 45.242188 25.363281 44.621094 C 26.035156 44.003906 26.652344 44 27.160156 44.792969 C 27.59375 45.464844 30.761719 49.695312 34.191406 49.804688 C 37.675781 49.917969 39.53125 49.015625 41.050781 49.070312 C 42.117188 49.113281 42.632812 49.636719 43.242188 49.746094 C 44.308594 49.917969 45.066406 48.949219 46.253906 49.003906 C 47.207031 49.050781 48.246094 49.691406 49.316406 49.691406 C 50.382812 49.691406 52.636719 48.398438 52.605469 48.929688 C 52.546875 49.875 51.816406 51.53125 51.648438 52.320312 C 51.535156 52.855469 51.632812 54.152344 51.3125 55.179688 C 51.027344 56.238281 50.046875 57.574219 49.792969 57.953125 C 48.929688 59.25 48.304688 59.648438 47.597656 60.996094 C 46.8125 62.515625 45.519531 63.925781 45.183594 64.386719 C 44.75 64.949219 47.621094 64.367188 48.640625 63.398438 C 49.507812 62.574219 51.007812 60.09375 53.417969 59.558594 C 55.039062 59.203125 55.359375 58.582031 55.164062 58.003906 C 55.132812 57.933594 55.113281 57.855469 55.113281 57.777344 C 55.113281 57.558594 55.246094 57.363281 55.429688 57.273438 C 57.101562 56.574219 59.375 56.140625 61.859375 56.140625 C 63.316406 56.140625 64.753906 56.335938 66.113281 56.652344 C 67.960938 53.796875 69.367188 50.738281 70.328125 47.476562 C 71.289062 44.210938 71.765625 40.878906 71.761719 37.476562 C 71.722656 17.972656 55.957031 2.179688 36.511719 2.179688 Z M 44.265625 53.386719 C 44.445312 53.5625 44.757812 54.160156 44.375 54.914062 C 44.148438 55.3125 43.933594 55.59375 43.519531 55.925781 C 43.023438 56.324219 42.054688 56.78125 40.726562 55.9375 C 40.015625 55.484375 39.96875 55.332031 38.984375 55.457031 C 38.28125 55.550781 38 54.839844 38.253906 54.246094 C 38.503906 53.652344 39.546875 53.179688 40.839844 53.9375 C 41.421875 54.28125 42.328125 55.003906 43.121094 54.363281 C 43.460938 54.097656 43.648438 53.910156 44.105469 53.390625 C 44.125 53.367188 44.152344 53.359375 44.1875 53.359375 C 44.21875 53.359375 44.242188 53.367188 44.261719 53.382812 "
      fill-opacity="1" fill-rule="nonzero" />
  </g>
  <path fill="#347FC7"
    d="M 41.800781 9.453125 C 40.984375 9.484375 40.179688 9.605469 39.390625 9.808594 C 38.21875 10.105469 35.933594 11.296875 31.695312 10.34375 C 24.351562 8.6875 23.265625 12.371094 22.847656 13.972656 L 21.414062 20.136719 C 21.078125 21.992188 20.636719 25.21875 32.03125 27.394531 C 37.339844 28.40625 37.609375 29.78125 37.84375 30.769531 C 38.265625 32.542969 38.941406 33.554688 39.699219 34.0625 C 40.457031 34.570312 39.699219 34.988281 38.855469 35.078125 C 36.597656 35.3125 28.238281 32.910156 23.296875 30.097656 C 19.253906 27.621094 19.1875 25.390625 20.113281 23.5 C 14 22.835938 9.414062 24.074219 8.585938 26.972656 C 7.15625 31.945312 19.496094 40.4375 33.546875 44.699219 C 48.292969 49.175781 63.460938 46.050781 65.148438 36.765625 C 65.910156 32.546875 62.367188 29.425781 56.386719 28.074219 C 56.035156 29.246094 55.539062 30.742188 53.339844 31.875 C 53.019531 32.042969 52.898438 31.773438 53.046875 31.519531 C 53.878906 30.101562 54.027344 29.746094 54.265625 29.1875 C 54.605469 28.367188 54.78125 27.203125 54.109375 24.78125 C 52.785156 20.003906 50.023438 13.625 48.011719 11.554688 C 46.558594 10.054688 44.222656 9.363281 41.804688 9.457031 Z M 42.464844 11.089844 L 42.664062 11.089844 C 44.921875 11.140625 46.730469 12.039062 46.703125 13.097656 C 46.675781 14.15625 44.824219 14.972656 42.566406 14.921875 C 41.886719 14.910156 41.21875 14.8125 40.5625 14.628906 C 40.492188 14.609375 40.441406 14.550781 40.441406 14.480469 C 40.441406 14.410156 40.492188 14.351562 40.5625 14.332031 C 41.96875 14.007812 42.921875 13.476562 42.855469 12.96875 C 42.765625 12.300781 40.921875 11.9375 38.738281 12.15625 C 38.503906 12.179688 38.269531 12.210938 38.039062 12.246094 C 37.960938 12.25 37.90625 12.199219 37.90625 12.140625 C 37.90625 12.097656 37.933594 12.0625 37.972656 12.042969 C 38.761719 11.625 39.9375 11.296875 41.28125 11.15625 C 41.6875 11.117188 42.082031 11.09375 42.460938 11.089844 Z M 25.730469 15.339844 C 26.089844 15.324219 26.425781 15.515625 26.582031 15.714844 C 26.964844 16.195312 27.789062 16.980469 28.859375 16.953125 C 29.925781 16.925781 31.15625 16.699219 32.871094 16.699219 C 34.613281 16.699219 35.785156 17.351562 35.847656 17.910156 C 35.90625 18.386719 35.707031 18.835938 33.769531 18.976562 C 29.703125 19.269531 29.28125 19.710938 28.519531 20.523438 C 27.445312 21.671875 26.03125 19.039062 26.03125 19.039062 C 25.179688 18.859375 24.152344 17.488281 24.707031 16.207031 C 24.980469 15.574219 25.367188 15.351562 25.730469 15.339844 Z M 25.730469 15.339844 "
    fill-opacity="1" fill-rule="nonzero" />
</svg>
