<svg xmlns="http://www.w3.org/2000/svg" xmlns:xlink="http://www.w3.org/1999/xlink" width="100" zoomAndPan="magnify" viewBox="0 0 75 74.999997" height="100" preserveAspectRatio="xMidYMid meet" version="1.0"><defs><clipPath id="41d0afe399"><path d="M 1.988281 1.988281 L 73.238281 1.988281 L 73.238281 73.238281 L 1.988281 73.238281 Z M 1.988281 1.988281 " clip-rule="nonzero"/></clipPath></defs><path fill="#c11f1f" d="M 46.453125 31.65625 C 45.921875 30.933594 45.078125 30.503906 44.179688 30.503906 L 31.09375 30.503906 C 30.195312 30.503906 29.355469 30.929688 28.824219 31.65625 C 27.152344 33.941406 26.144531 36.890625 26.144531 40.105469 C 26.144531 47.378906 31.289062 53.277344 37.636719 53.277344 C 43.984375 53.277344 49.128906 47.378906 49.128906 40.105469 C 49.132812 36.890625 48.125 33.941406 46.453125 31.65625 Z M 28.859375 34.699219 C 28.859375 33.96875 29.449219 33.375 30.183594 33.375 C 30.914062 33.375 31.507812 33.964844 31.507812 34.699219 C 31.507812 35.433594 30.917969 36.023438 30.183594 36.023438 C 29.449219 36.023438 28.859375 35.429688 28.859375 34.699219 Z M 32.507812 49.449219 C 31.902344 49.449219 31.410156 48.957031 31.410156 48.347656 C 31.410156 47.742188 31.902344 47.25 32.507812 47.25 C 33.117188 47.25 33.609375 47.742188 33.609375 48.347656 C 33.609375 48.957031 33.117188 49.449219 32.507812 49.449219 Z M 32.507812 44.160156 C 30.964844 44.160156 29.714844 42.910156 29.714844 41.367188 C 29.714844 39.824219 30.964844 38.570312 32.507812 38.570312 C 34.054688 38.570312 35.304688 39.824219 35.304688 41.367188 C 35.304688 42.910156 34.054688 44.160156 32.507812 44.160156 Z M 38.164062 51 C 38.164062 51.28125 37.9375 51.511719 37.652344 51.511719 C 37.371094 51.511719 37.140625 51.28125 37.140625 51 L 37.140625 32.777344 C 37.140625 32.496094 37.371094 32.265625 37.652344 32.265625 C 37.9375 32.265625 38.164062 32.496094 38.164062 32.777344 Z M 42.769531 49.449219 C 42.160156 49.449219 41.667969 48.957031 41.667969 48.347656 C 41.667969 47.742188 42.160156 47.25 42.769531 47.25 C 43.375 47.25 43.867188 47.742188 43.867188 48.347656 C 43.867188 48.957031 43.375 49.449219 42.769531 49.449219 Z M 42.769531 44.160156 C 41.226562 44.160156 39.972656 42.910156 39.972656 41.367188 C 39.972656 39.824219 41.226562 38.570312 42.769531 38.570312 C 44.3125 38.570312 45.5625 39.824219 45.5625 41.367188 C 45.5625 42.910156 44.308594 44.160156 42.769531 44.160156 Z M 45.097656 36.023438 C 44.363281 36.023438 43.769531 35.433594 43.769531 34.699219 C 43.769531 33.964844 44.363281 33.375 45.097656 33.375 C 45.828125 33.375 46.421875 33.964844 46.421875 34.699219 C 46.421875 35.433594 45.828125 36.023438 45.097656 36.023438 Z M 45.097656 36.023438 " fill-opacity="1" fill-rule="nonzero"/><path fill="#347fc7" d="M 40.332031 27.847656 C 40.332031 28.589844 39.742188 29.195312 39 29.21875 L 35.804688 29.304688 C 34.382812 29.34375 33.851562 27.457031 35.085938 26.75 L 36.765625 25.785156 C 38.351562 24.871094 40.332031 26.019531 40.332031 27.847656 Z M 40.332031 27.847656 " fill-opacity="1" fill-rule="nonzero"/><path fill="#424852" d="M 48.816406 25.125 L 50.476562 25.097656 C 50.757812 25.09375 50.984375 24.863281 50.980469 24.578125 C 50.976562 24.300781 50.746094 24.074219 50.46875 24.074219 C 50.464844 24.074219 50.460938 24.074219 50.460938 24.074219 L 48.800781 24.101562 C 48.058594 24.113281 47.335938 24.378906 46.765625 24.851562 L 44.085938 27.066406 C 43.398438 26.046875 42.464844 25.207031 41.359375 24.632812 L 41.121094 23.839844 C 40.902344 23.105469 40.457031 22.480469 39.882812 22.027344 L 39.921875 21.972656 C 40.363281 21.378906 40.605469 20.644531 40.605469 19.90625 L 40.605469 19.449219 C 40.605469 19.167969 40.378906 18.9375 40.09375 18.9375 C 39.8125 18.9375 39.582031 19.167969 39.582031 19.449219 L 39.582031 19.90625 C 39.582031 20.425781 39.410156 20.941406 39.101562 21.359375 L 38.992188 21.507812 C 38.566406 21.335938 38.113281 21.242188 37.640625 21.242188 C 37.140625 21.242188 36.65625 21.347656 36.214844 21.535156 L 36.082031 21.359375 C 35.769531 20.941406 35.597656 20.425781 35.597656 19.90625 L 35.597656 19.449219 C 35.597656 19.164062 35.371094 18.933594 35.085938 18.933594 C 34.804688 18.933594 34.574219 19.164062 34.574219 19.449219 L 34.574219 19.90625 C 34.574219 20.644531 34.816406 21.378906 35.261719 21.96875 L 35.335938 22.074219 C 34.789062 22.523438 34.367188 23.128906 34.15625 23.835938 L 33.917969 24.636719 C 32.804688 25.214844 31.863281 26.0625 31.175781 27.09375 L 28.460938 24.851562 C 27.890625 24.378906 27.167969 24.113281 26.425781 24.101562 L 24.765625 24.074219 C 24.761719 24.074219 24.757812 24.074219 24.757812 24.074219 C 24.480469 24.074219 24.25 24.300781 24.246094 24.578125 C 24.242188 24.863281 24.46875 25.09375 24.75 25.097656 L 26.410156 25.125 C 26.921875 25.132812 27.417969 25.3125 27.8125 25.640625 L 30.660156 27.996094 C 30.410156 28.523438 30.214844 29.085938 30.089844 29.675781 L 29.9375 30.398438 C 29.90625 30.546875 29.941406 30.707031 30.042969 30.824219 C 30.136719 30.945312 30.285156 31.015625 30.4375 31.015625 L 44.84375 31.015625 C 45 31.015625 45.144531 30.945312 45.242188 30.828125 C 45.339844 30.707031 45.375 30.550781 45.347656 30.398438 L 45.195312 29.679688 C 45.066406 29.078125 44.867188 28.503906 44.605469 27.964844 L 47.417969 25.640625 C 47.808594 25.3125 48.304688 25.132812 48.816406 25.125 Z M 35.136719 24.128906 C 35.464844 23.03125 36.492188 22.265625 37.640625 22.265625 C 38.785156 22.265625 39.8125 23.03125 40.140625 24.128906 L 40.140625 24.132812 C 40.09375 24.117188 40.046875 24.105469 40 24.089844 C 38.457031 23.640625 36.824219 23.644531 35.277344 24.089844 C 35.230469 24.101562 35.183594 24.117188 35.136719 24.132812 Z M 31.066406 29.988281 L 31.089844 29.890625 C 31.578125 27.574219 33.289062 25.730469 35.5625 25.074219 C 36.921875 24.679688 38.355469 24.679688 39.714844 25.074219 C 41.984375 25.730469 43.699219 27.574219 44.1875 29.890625 L 44.210938 29.988281 Z M 31.066406 29.988281 " fill-opacity="1" fill-rule="nonzero"/><path fill="#424852" d="M 51.085938 35.058594 L 50.1875 35.058594 C 49.90625 35.058594 49.675781 35.289062 49.675781 35.570312 C 49.675781 35.855469 49.90625 36.082031 50.1875 36.082031 L 51.085938 36.082031 C 51.199219 36.082031 51.308594 36.113281 51.40625 36.164062 L 54.890625 38.042969 C 54.96875 38.082031 55.050781 38.101562 55.132812 38.101562 C 55.316406 38.101562 55.492188 38.003906 55.585938 37.832031 C 55.71875 37.585938 55.625 37.273438 55.375 37.140625 L 51.894531 35.261719 C 51.644531 35.128906 51.367188 35.058594 51.085938 35.058594 Z M 51.085938 35.058594 " fill-opacity="1" fill-rule="nonzero"/><path fill="#424852" d="M 49.707031 47.203125 L 49.378906 47.023438 C 49.132812 46.886719 48.820312 46.972656 48.683594 47.222656 C 48.546875 47.46875 48.636719 47.78125 48.882812 47.917969 L 49.210938 48.101562 C 49.472656 48.246094 49.636719 48.523438 49.636719 48.828125 L 49.636719 53.277344 C 49.636719 53.558594 49.867188 53.789062 50.148438 53.789062 C 50.433594 53.789062 50.660156 53.558594 50.660156 53.277344 L 50.660156 48.828125 C 50.660156 48.152344 50.296875 47.53125 49.707031 47.203125 Z M 49.707031 47.203125 " fill-opacity="1" fill-rule="nonzero"/><path fill="#424852" d="M 25.550781 35.570312 C 25.550781 35.289062 25.320312 35.058594 25.039062 35.058594 L 24.140625 35.058594 C 23.859375 35.058594 23.582031 35.128906 23.332031 35.261719 L 19.851562 37.140625 C 19.601562 37.273438 19.507812 37.585938 19.640625 37.832031 C 19.734375 38.003906 19.910156 38.101562 20.09375 38.101562 C 20.175781 38.101562 20.257812 38.082031 20.335938 38.042969 L 23.820312 36.164062 C 23.917969 36.113281 24.027344 36.082031 24.140625 36.082031 L 25.039062 36.082031 C 25.320312 36.082031 25.550781 35.855469 25.550781 35.570312 Z M 25.550781 35.570312 " fill-opacity="1" fill-rule="nonzero"/><path fill="#424852" d="M 25.84375 47.023438 L 25.515625 47.203125 C 24.929688 47.53125 24.5625 48.152344 24.5625 48.828125 L 24.5625 53.277344 C 24.5625 53.558594 24.792969 53.789062 25.074219 53.789062 C 25.355469 53.789062 25.585938 53.558594 25.585938 53.277344 L 25.585938 48.828125 C 25.585938 48.523438 25.75 48.246094 26.011719 48.097656 L 26.339844 47.917969 C 26.589844 47.78125 26.679688 47.46875 26.539062 47.222656 C 26.402344 46.972656 26.09375 46.886719 25.84375 47.023438 Z M 25.84375 47.023438 " fill-opacity="1" fill-rule="nonzero"/><g clip-path="url(#41d0afe399)"><path fill="#424852" d="M 70.726562 42.261719 L 70.726562 38.914062 C 70.726562 37.914062 69.914062 37.101562 68.914062 37.101562 L 64.742188 37.101562 C 64.472656 22.542969 52.683594 10.753906 38.125 10.484375 L 38.125 6.3125 C 38.125 5.878906 38.480469 5.523438 38.914062 5.523438 L 42.261719 5.523438 C 42.507812 6.945312 43.746094 8.03125 45.238281 8.03125 C 46.902344 8.03125 48.261719 6.675781 48.261719 5.011719 C 48.261719 3.34375 46.902344 1.988281 45.238281 1.988281 C 43.746094 1.988281 42.507812 3.074219 42.261719 4.5 L 38.914062 4.5 C 37.914062 4.5 37.101562 5.3125 37.101562 6.3125 L 37.101562 10.484375 C 22.542969 10.753906 10.753906 22.542969 10.484375 37.101562 L 6.3125 37.101562 C 5.875 37.101562 5.523438 36.746094 5.523438 36.308594 L 5.523438 32.964844 C 6.945312 32.71875 8.03125 31.476562 8.03125 29.988281 C 8.03125 28.320312 6.675781 26.964844 5.011719 26.964844 C 3.34375 26.964844 1.988281 28.320312 1.988281 29.988281 C 1.988281 31.480469 3.074219 32.71875 4.5 32.964844 L 4.5 36.308594 C 4.5 37.308594 5.3125 38.125 6.3125 38.125 L 10.484375 38.125 C 10.753906 52.679688 22.542969 64.472656 37.101562 64.742188 L 37.101562 68.914062 C 37.101562 69.347656 36.746094 69.703125 36.308594 69.703125 L 32.964844 69.703125 C 32.71875 68.277344 31.476562 67.191406 29.988281 67.191406 C 28.320312 67.191406 26.964844 68.546875 26.964844 70.214844 C 26.964844 71.882812 28.320312 73.238281 29.988281 73.238281 C 31.480469 73.238281 32.71875 72.152344 32.964844 70.726562 L 36.308594 70.726562 C 37.308594 70.726562 38.125 69.914062 38.125 68.914062 L 38.125 64.742188 C 52.679688 64.472656 64.472656 52.683594 64.742188 38.125 L 68.914062 38.125 C 69.347656 38.125 69.703125 38.480469 69.703125 38.914062 L 69.703125 42.261719 C 68.277344 42.507812 67.191406 43.746094 67.191406 45.238281 C 67.191406 46.902344 68.546875 48.261719 70.214844 48.261719 C 71.882812 48.261719 73.238281 46.902344 73.238281 45.238281 C 73.238281 43.746094 72.152344 42.507812 70.726562 42.261719 Z M 47.238281 5.011719 C 47.238281 6.101562 46.355469 6.992188 45.269531 7.007812 C 45.648438 6.550781 45.894531 5.824219 45.894531 5.011719 C 45.894531 4.195312 45.648438 3.472656 45.269531 3.011719 C 46.355469 3.027344 47.238281 3.917969 47.238281 5.011719 Z M 7.011719 29.988281 C 7.011719 30.941406 6.335938 31.742188 5.441406 31.9375 C 5.847656 31.476562 6.109375 30.777344 6.109375 29.988281 C 6.109375 29.199219 5.847656 28.496094 5.441406 28.035156 C 6.335938 28.234375 7.011719 29.03125 7.011719 29.988281 Z M 30.046875 72.210938 C 30.429688 71.75 30.675781 71.03125 30.675781 70.214844 C 30.675781 69.398438 30.429688 68.675781 30.046875 68.21875 C 31.121094 68.25 31.984375 69.132812 31.984375 70.214844 C 31.984375 71.296875 31.121094 72.179688 30.046875 72.210938 Z M 37.613281 63.722656 C 23.214844 63.722656 11.5 52.011719 11.5 37.613281 C 11.5 23.214844 23.214844 11.5 37.613281 11.5 C 52.011719 11.5 63.722656 23.214844 63.722656 37.613281 C 63.722656 52.011719 52.011719 63.722656 37.613281 63.722656 Z M 70.214844 47.238281 C 70.164062 47.238281 70.117188 47.234375 70.066406 47.230469 C 70.414062 46.769531 70.640625 46.050781 70.640625 45.238281 C 70.640625 44.425781 70.414062 43.707031 70.066406 43.25 C 70.117188 43.242188 70.164062 43.242188 70.214844 43.242188 C 71.316406 43.242188 72.214844 44.136719 72.214844 45.238281 C 72.214844 46.339844 71.316406 47.238281 70.214844 47.238281 Z M 70.214844 47.238281 " fill-opacity="1" fill-rule="nonzero"/></g><path fill="#424852" d="M 37.613281 13.210938 C 24.160156 13.210938 13.210938 24.160156 13.210938 37.613281 C 13.210938 51.066406 24.160156 62.011719 37.613281 62.011719 C 51.066406 62.011719 62.011719 51.066406 62.011719 37.613281 C 62.011719 24.160156 51.066406 13.210938 37.613281 13.210938 Z M 37.613281 60.988281 C 24.722656 60.988281 14.234375 50.5 14.234375 37.613281 C 14.234375 24.722656 24.722656 14.234375 37.613281 14.234375 C 50.5 14.234375 60.988281 24.722656 60.988281 37.613281 C 60.988281 50.5 50.5 60.988281 37.613281 60.988281 Z M 37.613281 60.988281 " fill-opacity="1" fill-rule="nonzero"/></svg>