<svg xmlns="http://www.w3.org/2000/svg" xmlns:xlink="http://www.w3.org/1999/xlink" width="100" zoomAndPan="magnify" viewBox="0 0 75 74.999997" height="100" preserveAspectRatio="xMidYMid meet" version="1.0"><defs><clipPath id="995d447ce9"><path d="M 4.289062 0.394531 L 71.039062 0.394531 L 71.039062 74.644531 L 4.289062 74.644531 Z M 4.289062 0.394531 " clip-rule="nonzero"/></clipPath></defs><g clip-path="url(#995d447ce9)"><path fill="#0277bd" d="M 71.03125 0.394531 L 4.300781 0.394531 L 10.1875 66.828125 L 37.664062 74.644531 L 65.144531 66.828125 Z M 71.03125 0.394531 " fill-opacity="1" fill-rule="nonzero"/></g><path fill="#039be5" d="M 37.664062 6.257812 L 37.664062 68.585938 L 59.648438 62.335938 L 64.554688 6.257812 Z M 37.664062 6.257812 " fill-opacity="1" fill-rule="nonzero"/><path fill="#ffffff" d="M 55.527344 16.027344 L 37.664062 16.027344 L 37.664062 23.84375 L 47.28125 23.84375 L 46.695312 31.65625 L 37.664062 31.65625 L 37.664062 39.472656 L 46.300781 39.472656 L 45.710938 48.265625 L 37.664062 51 L 37.664062 59.207031 L 53.171875 54.128906 L 54.542969 31.65625 Z M 55.527344 16.027344 " fill-opacity="1" fill-rule="nonzero"/><path fill="#eeeeee" d="M 37.664062 16.027344 L 37.664062 23.84375 L 20.199219 23.84375 L 19.609375 16.027344 Z M 28.636719 31.65625 L 29.03125 39.472656 L 37.664062 39.472656 L 37.664062 31.65625 Z M 29.421875 43.382812 L 21.570312 43.382812 L 22.160156 54.128906 L 37.664062 59.207031 L 37.664062 51 L 29.617188 48.265625 Z M 29.421875 43.382812 " fill-opacity="1" fill-rule="nonzero"/></svg>