<svg xmlns="http://www.w3.org/2000/svg" xmlns:xlink="http://www.w3.org/1999/xlink" width="100" zoomAndPan="magnify" viewBox="0 0 75 74.999997" height="100" preserveAspectRatio="xMidYMid meet" version="1.0"><defs><clipPath id="a7650329bd"><path d="M 1.53125 4.542969 L 73.53125 4.542969 L 73.53125 70.542969 L 1.53125 70.542969 Z M 1.53125 4.542969 " clip-rule="nonzero"/></clipPath><clipPath id="e125cefe60"><path d="M 1.53125 16 L 73.53125 16 L 73.53125 20 L 1.53125 20 Z M 1.53125 16 " clip-rule="nonzero"/></clipPath></defs><g clip-path="url(#a7650329bd)"><path fill="#00aeef" d="M 66.015625 70.542969 L 9.042969 70.542969 C 4.910156 70.542969 1.546875 67.179688 1.546875 63.042969 L 1.546875 12.042969 C 1.546875 7.90625 4.910156 4.542969 9.042969 4.542969 L 66.015625 4.542969 C 70.148438 4.542969 73.515625 7.90625 73.515625 12.042969 L 73.515625 63.042969 C 73.515625 67.179688 70.148438 70.542969 66.015625 70.542969 Z M 9.042969 7.542969 C 6.5625 7.542969 4.542969 9.5625 4.542969 12.042969 L 4.542969 63.042969 C 4.542969 65.523438 6.5625 67.542969 9.042969 67.542969 L 66.015625 67.542969 C 68.496094 67.542969 70.515625 65.523438 70.515625 63.042969 L 70.515625 12.042969 C 70.515625 9.5625 68.496094 7.542969 66.015625 7.542969 Z M 9.042969 7.542969 " fill-opacity="1" fill-rule="nonzero"/></g><g clip-path="url(#e125cefe60)"><path fill="#00aeef" d="M 72.015625 19.542969 L 3.046875 19.542969 C 2.21875 19.542969 1.546875 18.871094 1.546875 18.042969 C 1.546875 17.214844 2.21875 16.542969 3.046875 16.542969 L 72.015625 16.542969 C 72.84375 16.542969 73.515625 17.214844 73.515625 18.042969 C 73.515625 18.871094 72.84375 19.542969 72.015625 19.542969 Z M 72.015625 19.542969 " fill-opacity="1" fill-rule="nonzero"/></g><path fill="#00aeef" d="M 15.039062 52.542969 C 14.648438 52.542969 14.261719 52.390625 13.992188 52.09375 C 13.691406 51.824219 13.539062 51.460938 13.539062 51.042969 C 13.539062 50.652344 13.691406 50.261719 13.992188 49.988281 C 14.378906 49.570312 15.039062 49.421875 15.609375 49.664062 C 15.789062 49.722656 15.96875 49.84375 16.089844 49.988281 C 16.390625 50.261719 16.539062 50.652344 16.539062 51.042969 C 16.539062 51.460938 16.390625 51.824219 16.089844 52.09375 C 15.820312 52.390625 15.429688 52.542969 15.039062 52.542969 Z M 15.039062 52.542969 " fill-opacity="1" fill-rule="nonzero"/><path fill="#00aeef" d="M 45.027344 45.042969 L 36.03125 45.042969 C 35.203125 45.042969 34.53125 44.371094 34.53125 43.542969 C 34.53125 42.714844 35.203125 42.042969 36.03125 42.042969 L 45.027344 42.042969 C 45.855469 42.042969 46.527344 42.714844 46.527344 43.542969 C 46.527344 44.371094 45.855469 45.042969 45.027344 45.042969 Z M 45.027344 45.042969 " fill-opacity="1" fill-rule="nonzero"/><path fill="#00aeef" d="M 45.027344 52.542969 L 39.03125 52.542969 C 36.550781 52.542969 34.53125 50.523438 34.53125 48.042969 L 34.53125 39.042969 C 34.53125 36.5625 36.550781 34.542969 39.03125 34.542969 L 45.027344 34.542969 C 45.855469 34.542969 46.527344 35.214844 46.527344 36.042969 C 46.527344 36.871094 45.855469 37.542969 45.027344 37.542969 L 39.03125 37.542969 C 38.203125 37.542969 37.53125 38.21875 37.53125 39.042969 L 37.53125 48.042969 C 37.53125 48.867188 38.203125 49.542969 39.03125 49.542969 L 45.027344 49.542969 C 45.855469 49.542969 46.527344 50.214844 46.527344 51.042969 C 46.527344 51.871094 45.855469 52.542969 45.027344 52.542969 Z M 45.027344 52.542969 " fill-opacity="1" fill-rule="nonzero"/><path fill="#00aeef" d="M 30.035156 52.542969 C 29.515625 52.542969 29.023438 52.273438 28.746094 51.8125 L 22.535156 41.457031 L 22.535156 51.042969 C 22.535156 51.871094 21.863281 52.542969 21.039062 52.542969 C 20.210938 52.542969 19.539062 51.871094 19.539062 51.042969 L 19.539062 36.042969 C 19.539062 35.367188 19.988281 34.777344 20.636719 34.597656 C 21.28125 34.417969 21.980469 34.695312 22.324219 35.273438 L 28.535156 45.628906 L 28.535156 36.042969 C 28.535156 35.214844 29.207031 34.542969 30.035156 34.542969 C 30.859375 34.542969 31.53125 35.214844 31.53125 36.042969 L 31.53125 51.042969 C 31.53125 51.71875 31.082031 52.308594 30.433594 52.484375 C 30.300781 52.523438 30.164062 52.542969 30.035156 52.542969 Z M 30.035156 52.542969 " fill-opacity="1" fill-rule="nonzero"/><path fill="#00aeef" d="M 55.523438 52.542969 C 54.695312 52.542969 54.023438 51.871094 54.023438 51.042969 L 54.023438 36.042969 C 54.023438 35.214844 54.695312 34.542969 55.523438 34.542969 C 56.347656 34.542969 57.019531 35.214844 57.019531 36.042969 L 57.019531 51.042969 C 57.019531 51.871094 56.347656 52.542969 55.523438 52.542969 Z M 55.523438 52.542969 " fill-opacity="1" fill-rule="nonzero"/><path fill="#00aeef" d="M 60.019531 37.542969 L 51.023438 37.542969 C 50.195312 37.542969 49.523438 36.871094 49.523438 36.042969 C 49.523438 35.214844 50.195312 34.542969 51.023438 34.542969 L 60.019531 34.542969 C 60.847656 34.542969 61.519531 35.214844 61.519531 36.042969 C 61.519531 36.871094 60.847656 37.542969 60.019531 37.542969 Z M 60.019531 37.542969 " fill-opacity="1" fill-rule="nonzero"/></svg>