<svg xmlns="http://www.w3.org/2000/svg" xmlns:xlink="http://www.w3.org/1999/xlink" width="100" zoomAndPan="magnify" viewBox="0 0 75 74.999997" height="100" preserveAspectRatio="xMidYMid meet" version="1.0"><defs><clipPath id="a2dfb94a84"><path d="M 1 1 L 73.726562 1 L 73.726562 73.726562 L 1 73.726562 Z M 1 1 " clip-rule="nonzero"/></clipPath></defs><g clip-path="url(#a2dfb94a84)"><path fill="#de4c36" d="M 71.921875 34.148438 L 40.550781 2.78125 C 38.746094 0.972656 35.816406 0.972656 34.007812 2.777344 L 27.492188 9.292969 L 35.753906 17.558594 C 37.675781 16.910156 39.878906 17.34375 41.410156 18.875 C 42.945312 20.414062 43.378906 22.636719 42.714844 24.5625 L 50.679688 32.527344 C 52.605469 31.863281 54.828125 32.292969 56.367188 33.832031 C 58.519531 35.984375 58.519531 39.46875 56.367188 41.621094 C 54.214844 43.773438 50.730469 43.773438 48.578125 41.621094 C 46.960938 40 46.5625 37.625 47.382812 35.632812 L 39.953125 28.203125 L 39.953125 47.75 C 40.476562 48.011719 40.96875 48.355469 41.410156 48.789062 C 43.558594 50.941406 43.558594 54.425781 41.410156 56.578125 C 39.257812 58.730469 35.769531 58.730469 33.621094 56.578125 C 31.472656 54.425781 31.472656 50.941406 33.621094 48.789062 C 34.152344 48.261719 34.769531 47.859375 35.425781 47.589844 L 35.425781 27.863281 C 34.769531 27.59375 34.15625 27.195312 33.621094 26.660156 C 31.992188 25.035156 31.601562 22.640625 32.433594 20.640625 L 24.289062 12.496094 L 2.78125 34.003906 C 0.972656 35.8125 0.972656 38.742188 2.78125 40.550781 L 34.152344 71.921875 C 35.957031 73.726562 38.886719 73.726562 40.695312 71.921875 L 71.921875 40.695312 C 73.726562 38.886719 73.726562 35.957031 71.921875 34.148438 " fill-opacity="1" fill-rule="nonzero"/></g></svg>