<svg xmlns="http://www.w3.org/2000/svg" xmlns:xlink="http://www.w3.org/1999/xlink" width="100" zoomAndPan="magnify" viewBox="0 0 75 74.999997" height="100" preserveAspectRatio="xMidYMid meet" version="1.0"><defs><clipPath id="21b78be454"><path d="M 1.914062 1.914062 L 73.164062 1.914062 L 73.164062 73.164062 L 1.914062 73.164062 Z M 1.914062 1.914062 " clip-rule="nonzero"/></clipPath></defs><g clip-path="url(#21b78be454)"><path fill="#8d8d99" d="M 37.554688 1.914062 C 36.386719 1.914062 35.222656 1.96875 34.0625 2.085938 C 32.902344 2.199219 31.746094 2.371094 30.601562 2.597656 C 29.460938 2.828125 28.328125 3.109375 27.210938 3.449219 C 26.09375 3.789062 25 4.183594 23.921875 4.628906 C 22.84375 5.074219 21.789062 5.574219 20.761719 6.125 C 19.730469 6.675781 18.730469 7.273438 17.761719 7.921875 C 16.792969 8.570312 15.855469 9.265625 14.953125 10.007812 C 14.050781 10.746094 13.1875 11.53125 12.363281 12.355469 C 11.539062 13.179688 10.757812 14.046875 10.015625 14.949219 C 9.277344 15.851562 8.582031 16.785156 7.933594 17.757812 C 7.289062 18.726562 6.6875 19.726562 6.140625 20.757812 C 5.589844 21.785156 5.089844 22.839844 4.644531 23.917969 C 4.199219 24.996094 3.804688 26.09375 3.46875 27.210938 C 3.128906 28.328125 2.847656 29.457031 2.621094 30.601562 C 2.390625 31.746094 2.222656 32.898438 2.109375 34.058594 C 1.992188 35.222656 1.9375 36.386719 1.9375 37.550781 C 1.9375 38.71875 1.996094 39.882812 2.109375 41.042969 C 2.222656 42.207031 2.394531 43.359375 2.625 44.503906 C 2.851562 45.648438 3.136719 46.777344 3.472656 47.894531 C 3.8125 49.011719 4.207031 50.109375 4.652344 51.1875 C 5.101562 52.265625 5.597656 53.316406 6.148438 54.347656 C 6.699219 55.375 7.300781 56.375 7.949219 57.34375 C 8.597656 58.316406 9.289062 59.25 10.03125 60.152344 C 10.773438 61.054688 11.554688 61.917969 12.378906 62.742188 C 13.207031 63.566406 14.070312 64.351562 14.972656 65.089844 C 15.875 65.828125 16.808594 66.523438 17.78125 67.171875 C 18.75 67.820312 19.75 68.417969 20.78125 68.96875 C 21.808594 69.519531 22.863281 70.015625 23.941406 70.460938 C 25.019531 70.910156 26.117188 71.300781 27.234375 71.640625 C 28.351562 71.976562 29.480469 72.261719 30.625 72.488281 C 31.769531 72.714844 32.921875 72.886719 34.082031 73 C 35.246094 73.113281 36.410156 73.171875 37.574219 73.171875 C 38.742188 73.171875 39.90625 73.113281 41.066406 73 C 42.230469 72.882812 43.382812 72.710938 44.527344 72.484375 C 45.671875 72.257812 46.800781 71.972656 47.917969 71.632812 C 49.035156 71.292969 50.132812 70.902344 51.210938 70.453125 C 52.289062 70.007812 53.339844 69.507812 54.371094 68.960938 C 55.398438 68.410156 56.398438 67.808594 57.367188 67.160156 C 58.339844 66.511719 59.273438 65.816406 60.175781 65.078125 C 61.078125 64.335938 61.941406 63.554688 62.765625 62.730469 C 63.589844 61.902344 64.375 61.039062 65.113281 60.136719 C 65.851562 59.234375 66.546875 58.300781 67.195312 57.328125 C 67.84375 56.359375 68.441406 55.359375 68.992188 54.328125 C 69.542969 53.300781 70.039062 52.246094 70.488281 51.167969 C 70.933594 50.089844 71.324219 48.992188 71.664062 47.875 C 72.003906 46.757812 72.285156 45.628906 72.511719 44.484375 C 72.738281 43.339844 72.910156 42.1875 73.023438 41.027344 C 73.136719 39.863281 73.195312 38.699219 73.195312 37.535156 C 73.191406 36.367188 73.132812 35.203125 73.015625 34.042969 C 72.902344 32.882812 72.726562 31.730469 72.5 30.585938 C 72.269531 29.441406 71.984375 28.3125 71.644531 27.199219 C 71.304688 26.082031 70.910156 24.984375 70.460938 23.910156 C 70.015625 22.832031 69.515625 21.777344 68.964844 20.75 C 68.414062 19.722656 67.8125 18.722656 67.164062 17.753906 C 66.515625 16.785156 65.820312 15.851562 65.082031 14.949219 C 64.339844 14.046875 63.558594 13.183594 62.734375 12.359375 C 61.910156 11.535156 61.046875 10.753906 60.144531 10.011719 C 59.242188 9.273438 58.304688 8.578125 57.335938 7.929688 C 56.367188 7.28125 55.367188 6.683594 54.339844 6.132812 C 53.308594 5.582031 52.257812 5.085938 51.179688 4.636719 C 50.101562 4.191406 49.007812 3.796875 47.890625 3.457031 C 46.773438 3.117188 45.644531 2.835938 44.5 2.605469 C 43.355469 2.375 42.203125 2.203125 41.042969 2.089844 C 39.882812 1.972656 38.71875 1.914062 37.554688 1.914062 Z M 47.394531 67.59375 C 45.847656 67.910156 45.277344 66.960938 45.277344 66.140625 C 45.277344 65.09375 45.324219 61.773438 45.324219 57.636719 C 45.324219 54.769531 44.347656 52.890625 43.230469 51.933594 C 50.097656 51.160156 57.324219 48.550781 57.324219 36.679688 C 57.351562 35.144531 57.085938 33.660156 56.535156 32.226562 C 55.988281 30.792969 55.1875 29.511719 54.144531 28.386719 C 54.460938 27.613281 55.550781 24.453125 53.84375 20.1875 C 53.84375 20.1875 51.253906 19.34375 45.347656 23.34375 C 42.820312 22.664062 40.246094 22.324219 37.628906 22.324219 C 35.011719 22.324219 32.441406 22.664062 29.914062 23.34375 C 24.003906 19.394531 21.410156 20.1875 21.410156 20.1875 C 19.730469 24.433594 20.800781 27.597656 21.113281 28.386719 C 20.078125 29.515625 19.285156 30.796875 18.742188 32.230469 C 18.195312 33.664062 17.933594 35.148438 17.957031 36.679688 C 17.957031 48.5 25.140625 51.160156 32.003906 51.933594 C 31.117188 52.707031 30.296875 54.046875 30.027344 56.070312 C 28.253906 56.867188 23.820312 58.183594 21.050781 53.527344 C 20.457031 52.589844 18.730469 50.320312 16.296875 50.34375 C 13.707031 50.390625 15.253906 51.820312 16.324219 52.394531 C 17.636719 53.144531 19.140625 55.871094 19.503906 56.757812 C 20.113281 58.507812 22.113281 61.824219 29.867188 60.390625 C 29.867188 62.984375 29.914062 65.417969 29.914062 66.132812 C 29.914062 66.953125 29.347656 67.859375 27.796875 67.585938 C 27.222656 67.394531 26.65625 67.1875 26.097656 66.960938 C 25.539062 66.738281 24.984375 66.496094 24.4375 66.238281 C 23.890625 65.980469 23.351562 65.707031 22.824219 65.417969 C 22.292969 65.128906 21.773438 64.824219 21.261719 64.503906 C 20.746094 64.183594 20.246094 63.851562 19.753906 63.5 C 19.261719 63.152344 18.777344 62.789062 18.308594 62.410156 C 17.835938 62.03125 17.375 61.640625 16.925781 61.238281 C 16.480469 60.832031 16.042969 60.414062 15.621094 59.984375 C 15.195312 59.554688 14.785156 59.113281 14.386719 58.65625 C 13.988281 58.203125 13.605469 57.738281 13.234375 57.261719 C 12.863281 56.785156 12.507812 56.296875 12.167969 55.796875 C 11.824219 55.300781 11.496094 54.792969 11.1875 54.277344 C 10.875 53.757812 10.578125 53.234375 10.296875 52.699219 C 10.015625 52.164062 9.75 51.621094 9.5 51.074219 C 9.25 50.523438 9.019531 49.964844 8.800781 49.402344 C 8.585938 48.839844 8.386719 48.269531 8.203125 47.695312 C 8.019531 47.117188 7.851562 46.539062 7.703125 45.953125 C 7.554688 45.367188 7.421875 44.777344 7.308594 44.183594 C 7.195312 43.59375 7.097656 42.996094 7.019531 42.398438 C 6.9375 41.800781 6.875 41.199219 6.832031 40.597656 C 6.789062 39.996094 6.761719 39.390625 6.753906 38.789062 C 6.746094 38.183594 6.753906 37.582031 6.78125 36.976562 C 6.808594 36.375 6.851562 35.773438 6.914062 35.171875 C 6.976562 34.570312 7.054688 33.972656 7.152344 33.375 C 7.25 32.78125 7.363281 32.1875 7.496094 31.597656 C 7.628906 31.007812 7.777344 30.425781 7.941406 29.84375 C 8.109375 29.261719 8.292969 28.6875 8.492188 28.117188 C 8.691406 27.546875 8.910156 26.984375 9.144531 26.429688 C 9.375 25.871094 9.625 25.320312 9.890625 24.777344 C 10.15625 24.238281 10.4375 23.703125 10.734375 23.175781 C 11.03125 22.652344 11.34375 22.132812 11.671875 21.625 C 11.996094 21.117188 12.339844 20.621094 12.695312 20.132812 C 13.050781 19.648438 13.421875 19.171875 13.808594 18.703125 C 14.191406 18.238281 14.589844 17.785156 15 17.34375 C 15.410156 16.898438 15.835938 16.46875 16.269531 16.050781 C 16.707031 15.636719 17.15625 15.230469 17.617188 14.839844 C 18.074219 14.449219 18.546875 14.070312 19.03125 13.707031 C 19.511719 13.34375 20.003906 12.996094 20.507812 12.660156 C 21.007812 12.324219 21.523438 12.007812 22.042969 11.703125 C 22.566406 11.398438 23.09375 11.109375 23.632812 10.835938 C 24.171875 10.5625 24.71875 10.304688 25.269531 10.0625 C 25.824219 9.824219 26.386719 9.597656 26.953125 9.390625 C 27.519531 9.179688 28.089844 8.988281 28.667969 8.816406 C 29.246094 8.640625 29.828125 8.480469 30.417969 8.339844 C 31.003906 8.199219 31.59375 8.078125 32.191406 7.972656 C 32.785156 7.867188 33.382812 7.777344 33.980469 7.707031 C 34.582031 7.636719 35.183594 7.582031 35.785156 7.546875 C 36.386719 7.511719 36.992188 7.496094 37.59375 7.496094 C 38.199219 7.496094 38.800781 7.511719 39.40625 7.546875 C 40.007812 7.582031 40.609375 7.636719 41.207031 7.707031 C 41.808594 7.777344 42.40625 7.867188 43 7.972656 C 43.59375 8.078125 44.183594 8.199219 44.773438 8.339844 C 45.359375 8.480469 45.941406 8.640625 46.519531 8.816406 C 47.097656 8.988281 47.671875 9.179688 48.238281 9.390625 C 48.804688 9.597656 49.363281 9.824219 49.917969 10.0625 C 50.472656 10.304688 51.019531 10.5625 51.554688 10.835938 C 52.09375 11.109375 52.625 11.398438 53.144531 11.703125 C 53.667969 12.007812 54.179688 12.324219 54.683594 12.660156 C 55.183594 12.996094 55.679688 13.34375 56.160156 13.707031 C 56.640625 14.070312 57.113281 14.449219 57.574219 14.839844 C 58.035156 15.230469 58.480469 15.636719 58.917969 16.050781 C 59.355469 16.46875 59.777344 16.898438 60.1875 17.34375 C 60.601562 17.785156 61 18.238281 61.382812 18.703125 C 61.765625 19.171875 62.136719 19.648438 62.492188 20.132812 C 62.851562 20.621094 63.191406 21.117188 63.519531 21.625 C 63.847656 22.132812 64.160156 22.652344 64.457031 23.175781 C 64.753906 23.703125 65.035156 24.238281 65.300781 24.777344 C 65.5625 25.320312 65.8125 25.871094 66.046875 26.429688 C 66.28125 26.984375 66.496094 27.546875 66.695312 28.117188 C 66.898438 28.6875 67.082031 29.261719 67.246094 29.84375 C 67.414062 30.425781 67.5625 31.007812 67.695312 31.597656 C 67.824219 32.1875 67.941406 32.78125 68.039062 33.375 C 68.136719 33.972656 68.214844 34.570312 68.277344 35.171875 C 68.339844 35.773438 68.382812 36.375 68.410156 36.976562 C 68.4375 37.582031 68.445312 38.183594 68.4375 38.789062 C 68.429688 39.390625 68.402344 39.996094 68.355469 40.597656 C 68.3125 41.199219 68.25 41.800781 68.171875 42.398438 C 68.09375 42.996094 67.996094 43.59375 67.878906 44.183594 C 67.765625 44.777344 67.632812 45.367188 67.484375 45.953125 C 67.335938 46.539062 67.171875 47.117188 66.988281 47.695312 C 66.804688 48.269531 66.605469 48.839844 66.386719 49.402344 C 66.171875 49.964844 65.9375 50.523438 65.6875 51.074219 C 65.441406 51.621094 65.175781 52.164062 64.894531 52.699219 C 64.613281 53.234375 64.316406 53.757812 64.003906 54.277344 C 63.691406 54.792969 63.363281 55.300781 63.023438 55.796875 C 62.679688 56.296875 62.324219 56.785156 61.953125 57.261719 C 61.585938 57.738281 61.199219 58.203125 60.800781 58.65625 C 60.40625 59.113281 59.992188 59.554688 59.570312 59.984375 C 59.144531 60.414062 58.710938 60.832031 58.261719 61.238281 C 57.8125 61.640625 57.355469 62.03125 56.882812 62.410156 C 56.410156 62.789062 55.929688 63.152344 55.4375 63.5 C 54.945312 63.851562 54.441406 64.183594 53.929688 64.503906 C 53.417969 64.824219 52.898438 65.128906 52.367188 65.417969 C 51.835938 65.707031 51.296875 65.980469 50.753906 66.238281 C 50.207031 66.496094 49.652344 66.738281 49.09375 66.960938 C 48.53125 67.1875 47.964844 67.394531 47.394531 67.585938 Z M 47.394531 67.59375 " fill-opacity="1" fill-rule="evenodd"/></g></svg>