<svg xmlns="http://www.w3.org/2000/svg" xmlns:xlink="http://www.w3.org/1999/xlink" width="100" zoomAndPan="magnify" viewBox="0 0 75 74.999997" height="100" preserveAspectRatio="xMidYMid meet" version="1.0"><defs><clipPath id="8537b81400"><path d="M 4.6875 0 L 70.6875 0 L 70.6875 75 L 4.6875 75 Z M 4.6875 0 " clip-rule="nonzero"/></clipPath></defs><g clip-path="url(#8537b81400)"><path fill="#e44d26" d="M 10.679688 67.292969 L 4.667969 0.269531 L 70.707031 0.269531 L 64.691406 67.28125 L 37.644531 74.734375 Z M 10.679688 67.292969 " fill-opacity="1" fill-rule="nonzero"/></g><path fill="#f16529" d="M 59.539062 63.015625 L 64.683594 5.75 L 37.6875 5.75 L 37.6875 69.039062 Z M 59.539062 63.015625 " fill-opacity="1" fill-rule="nonzero"/><path fill="#ebebeb" d="M 37.660156 13.96875 L 16.957031 13.96875 L 19.1875 38.828125 L 37.6875 38.828125 L 37.6875 30.605469 L 26.75 30.605469 L 25.992188 22.191406 L 37.6875 22.191406 L 37.6875 13.96875 Z M 37.6875 51.929688 L 37.652344 51.9375 L 28.445312 49.464844 L 27.859375 42.910156 L 19.554688 42.910156 L 20.714844 55.816406 L 37.648438 60.472656 L 37.6875 60.460938 Z M 37.6875 51.929688 " fill-opacity="1" fill-rule="nonzero"/><path fill="#ffffff" d="M 37.660156 38.828125 L 47.839844 38.828125 L 46.902344 49.484375 L 37.683594 51.957031 L 37.683594 60.511719 L 54.632812 55.839844 L 56.902344 30.601562 L 37.6875 30.601562 Z M 58.171875 16.175781 L 58.367188 13.96875 L 37.65625 13.96875 L 37.65625 22.1875 L 57.625 22.1875 L 57.785156 20.339844 Z M 58.171875 16.175781 " fill-opacity="1" fill-rule="nonzero"/></svg>