<svg xmlns="http://www.w3.org/2000/svg" xmlns:xlink="http://www.w3.org/1999/xlink" width="200" zoomAndPan="magnify" viewBox="0 0 150 149.999998" height="200" preserveAspectRatio="xMidYMid meet" version="1.0"><defs><g/><clipPath id="b61b4f5f12"><path d="M 75 0 C 33.578125 0 0 33.578125 0 75 C 0 116.421875 33.578125 150 75 150 C 116.421875 150 150 116.421875 150 75 C 150 33.578125 116.421875 0 75 0 " clip-rule="nonzero"/></clipPath><clipPath id="5a2c440f49"><path d="M 78.023438 29.269531 L 97.523438 29.269531 L 97.523438 48.769531 L 78.023438 48.769531 Z M 78.023438 29.269531 " clip-rule="nonzero"/></clipPath><clipPath id="c5f428e647"><path d="M 71.636719 48.570312 L 83.636719 48.570312 L 83.636719 60.570312 L 71.636719 60.570312 Z M 71.636719 48.570312 " clip-rule="nonzero"/></clipPath><clipPath id="c93c4e3589"><path d="M 5.796875 7.34375 L 74.796875 7.34375 L 74.796875 142.34375 L 5.796875 142.34375 Z M 5.796875 7.34375 " clip-rule="nonzero"/></clipPath></defs><g clip-path="url(#b61b4f5f12)"><rect x="-15" width="180" fill="#e1e1e6" y="-15" height="179.999997" fill-opacity="1"/></g><g clip-path="url(#5a2c440f49)"><path fill="#053768" d="M 97.523438 39.019531 C 90.210938 40.363281 89.117188 41.457031 87.773438 48.769531 C 86.425781 41.457031 85.335938 40.363281 78.023438 39.019531 C 85.335938 37.671875 86.425781 36.582031 87.773438 29.269531 C 89.117188 36.582031 90.210938 37.671875 97.523438 39.019531 Z M 97.523438 39.019531 " fill-opacity="1" fill-rule="nonzero"/></g><g clip-path="url(#c5f428e647)"><path fill="#053768" d="M 83.636719 54.570312 C 79.136719 55.398438 78.464844 56.070312 77.636719 60.570312 C 76.808594 56.070312 76.136719 55.398438 71.636719 54.570312 C 76.136719 53.742188 76.808594 53.070312 77.636719 48.570312 C 78.464844 53.070312 79.136719 53.742188 83.636719 54.570312 Z M 83.636719 54.570312 " fill-opacity="1" fill-rule="nonzero"/></g><g clip-path="url(#c93c4e3589)"><path fill="#053768" d="M 74.734375 8.40625 C 74.734375 8.988281 74.257812 9.464844 73.671875 9.464844 C 37.394531 9.464844 7.984375 38.734375 7.984375 74.84375 C 7.984375 110.957031 37.394531 140.226562 73.671875 140.226562 C 74.257812 140.226562 74.734375 140.703125 74.734375 141.285156 C 74.734375 141.871094 74.257812 142.34375 73.671875 142.34375 C 36.21875 142.34375 5.859375 112.125 5.859375 74.84375 C 5.859375 37.566406 36.21875 7.34375 73.671875 7.34375 C 74.257812 7.34375 74.734375 7.820312 74.734375 8.40625 Z M 74.734375 8.40625 " fill-opacity="1" fill-rule="evenodd"/></g><g fill="#053768" fill-opacity="1"><g transform="translate(35.763704, 119.043105)"><g><path d="M 3.90625 0 L 3.90625 -4.84375 L 12.859375 -5.546875 L 12.859375 -74.4375 L 3.90625 -75.15625 L 3.90625 -80.046875 L 28.421875 -80.046875 L 28.421875 -75.15625 L 19.46875 -74.4375 L 19.46875 -5.546875 L 52.71875 -5.546875 L 53.21875 -16.828125 L 59.046875 -16.828125 L 59.046875 0 Z M 3.90625 0 "/></g></g></g><g fill="#053768" fill-opacity="1"><g transform="translate(89.349464, 17.033063)"><g><path d="M 7.484375 -6.984375 L 3.703125 -8.4375 L 3.625 -8.234375 L 4.75 -7.796875 L 1.609375 0.390625 L 0.484375 -0.046875 L 0.40625 0.15625 L 4.1875 1.609375 C 4.78125 1.828125 5.363281 1.925781 5.9375 1.90625 C 6.507812 1.894531 7.046875 1.765625 7.546875 1.515625 C 8.046875 1.265625 8.492188 0.90625 8.890625 0.4375 C 9.285156 -0.03125 9.613281 -0.597656 9.875 -1.265625 C 10.113281 -1.890625 10.234375 -2.5 10.234375 -3.09375 C 10.242188 -3.6875 10.140625 -4.234375 9.921875 -4.734375 C 9.703125 -5.242188 9.382812 -5.691406 8.96875 -6.078125 C 8.5625 -6.460938 8.066406 -6.765625 7.484375 -6.984375 Z M 8.59375 -2.140625 L 8.34375 -1.484375 C 8.050781 -0.734375 7.738281 -0.132812 7.40625 0.3125 C 7.070312 0.769531 6.726562 1.097656 6.375 1.296875 C 6.03125 1.492188 5.675781 1.59375 5.3125 1.59375 C 4.957031 1.59375 4.597656 1.523438 4.234375 1.390625 L 2.84375 0.859375 L 5.984375 -7.328125 L 7.375 -6.796875 C 7.726562 -6.660156 8.035156 -6.472656 8.296875 -6.234375 C 8.566406 -5.992188 8.769531 -5.679688 8.90625 -5.296875 C 9.039062 -4.921875 9.085938 -4.472656 9.046875 -3.953125 C 9.003906 -3.429688 8.851562 -2.828125 8.59375 -2.140625 Z M 8.59375 -2.140625 "/></g></g></g><g fill="#053768" fill-opacity="1"><g transform="translate(106.369997, 25.255916)"><g><path d="M 5.25 -1.875 L 6.109375 -1.1875 C 6.265625 -1.0625 6.367188 -0.941406 6.421875 -0.828125 C 6.484375 -0.710938 6.503906 -0.585938 6.484375 -0.453125 C 6.472656 -0.328125 6.4375 -0.191406 6.375 -0.046875 C 6.3125 0.0859375 6.234375 0.238281 6.140625 0.40625 C 6.066406 0.53125 6.050781 0.609375 6.09375 0.640625 C 6.132812 0.671875 6.195312 0.640625 6.28125 0.546875 L 8.015625 -1.625 C 8.078125 -1.707031 8.085938 -1.765625 8.046875 -1.796875 C 8.003906 -1.828125 7.929688 -1.804688 7.828125 -1.734375 C 7.691406 -1.609375 7.554688 -1.492188 7.421875 -1.390625 C 7.296875 -1.285156 7.171875 -1.210938 7.046875 -1.171875 C 6.929688 -1.128906 6.804688 -1.117188 6.671875 -1.140625 C 6.546875 -1.160156 6.40625 -1.234375 6.25 -1.359375 L 5.390625 -2.046875 L 7.890625 -5.21875 L 9.53125 -3.90625 C 9.78125 -3.71875 9.9375 -3.5 10 -3.25 C 10.070312 -3 10.085938 -2.742188 10.046875 -2.484375 C 10.015625 -2.234375 9.941406 -1.988281 9.828125 -1.75 C 9.722656 -1.507812 9.613281 -1.316406 9.5 -1.171875 C 9.414062 -1.066406 9.398438 -0.988281 9.453125 -0.9375 C 9.503906 -0.90625 9.566406 -0.9375 9.640625 -1.03125 L 10.9375 -2.65625 C 11.070312 -2.820312 11.050781 -2.972656 10.875 -3.109375 L 6.078125 -6.921875 L 5.9375 -6.765625 L 6.84375 -6.03125 L 1.40625 0.84375 L 0.515625 0.125 L 0.375 0.296875 L 5.40625 4.296875 C 5.613281 4.453125 5.804688 4.414062 5.984375 4.1875 L 7.265625 2.578125 C 7.398438 2.398438 7.4375 2.289062 7.375 2.25 C 7.332031 2.207031 7.238281 2.253906 7.09375 2.390625 C 6.820312 2.617188 6.566406 2.816406 6.328125 2.984375 C 6.085938 3.148438 5.847656 3.273438 5.609375 3.359375 C 5.378906 3.441406 5.144531 3.457031 4.90625 3.40625 C 4.675781 3.351562 4.4375 3.234375 4.1875 3.046875 L 2.453125 1.65625 Z M 5.25 -1.875 "/></g></g></g><g fill="#053768" fill-opacity="1"><g transform="translate(119.32187, 37.351697)"><g><path d="M 9.78125 -2.015625 L 7.703125 -5.0625 L 7.515625 -4.9375 L 8.171875 -3.96875 L 2.375 3.71875 L 2.515625 3.921875 L 11.703125 1.203125 L 12.25 2.015625 L 12.4375 1.890625 L 11.0625 -0.125 L 10.875 0 L 11.53125 0.96875 L 4.40625 3.078125 L 8.90625 -2.890625 L 9.59375 -1.890625 Z M 9.78125 -2.015625 "/></g></g></g><g fill="#053768" fill-opacity="1"><g transform="translate(128.438438, 53.455949)"><g><path d="M 5.390625 1.4375 L 5.71875 2.484375 C 5.769531 2.671875 5.785156 2.828125 5.765625 2.953125 C 5.742188 3.085938 5.691406 3.203125 5.609375 3.296875 C 5.523438 3.398438 5.410156 3.488281 5.265625 3.5625 C 5.128906 3.644531 4.976562 3.734375 4.8125 3.828125 C 4.695312 3.890625 4.644531 3.941406 4.65625 3.984375 C 4.675781 4.035156 4.742188 4.046875 4.859375 4.015625 L 7.515625 3.203125 C 7.617188 3.171875 7.660156 3.128906 7.640625 3.078125 C 7.628906 3.035156 7.5625 3.015625 7.4375 3.015625 C 7.238281 3.046875 7.0625 3.0625 6.90625 3.0625 C 6.75 3.070312 6.609375 3.0625 6.484375 3.03125 C 6.359375 3.007812 6.242188 2.945312 6.140625 2.84375 C 6.046875 2.75 5.972656 2.609375 5.921875 2.421875 L 5.59375 1.375 L 9.453125 0.203125 L 10.078125 2.203125 C 10.160156 2.503906 10.160156 2.773438 10.078125 3.015625 C 9.992188 3.253906 9.863281 3.46875 9.6875 3.65625 C 9.507812 3.84375 9.3125 4 9.09375 4.125 C 8.875 4.257812 8.671875 4.359375 8.484375 4.421875 C 8.359375 4.460938 8.304688 4.519531 8.328125 4.59375 C 8.347656 4.65625 8.414062 4.671875 8.53125 4.640625 L 10.515625 4.03125 C 10.722656 3.96875 10.789062 3.828125 10.71875 3.609375 L 8.921875 -2.25 L 8.71875 -2.1875 L 9.0625 -1.078125 L 0.671875 1.484375 L 0.34375 0.390625 L 0.140625 0.453125 L 2.015625 6.609375 C 2.097656 6.859375 2.28125 6.941406 2.5625 6.859375 L 4.53125 6.25 C 4.738281 6.1875 4.832031 6.117188 4.8125 6.046875 C 4.789062 5.984375 4.679688 5.96875 4.484375 6 C 4.128906 6.03125 3.804688 6.046875 3.515625 6.046875 C 3.222656 6.046875 2.957031 6.007812 2.71875 5.9375 C 2.476562 5.875 2.273438 5.753906 2.109375 5.578125 C 1.941406 5.410156 1.8125 5.175781 1.71875 4.875 L 1.0625 2.765625 Z M 5.390625 1.4375 "/></g></g></g><g fill="#053768" fill-opacity="1"><g transform="translate(132.230851, 70.776789)"><g><path d="M 2.53125 7.609375 C 2.1875 7.535156 1.875 7.457031 1.59375 7.375 C 1.3125 7.289062 1.066406 7.179688 0.859375 7.046875 C 0.648438 6.910156 0.488281 6.734375 0.375 6.515625 C 0.269531 6.304688 0.21875 6.046875 0.21875 5.734375 L 0.21875 2.921875 L 8.984375 2.921875 L 8.984375 4.21875 L 9.203125 4.21875 L 9.203125 0.40625 L 8.984375 0.40625 L 8.984375 1.59375 L 0.21875 1.59375 L 0.21875 0.40625 L 0 0.40625 L 0 7.46875 C 0 7.726562 0.144531 7.859375 0.4375 7.859375 L 2.5 7.859375 C 2.71875 7.859375 2.828125 7.820312 2.828125 7.75 C 2.828125 7.6875 2.726562 7.640625 2.53125 7.609375 Z M 2.53125 7.609375 "/></g></g></g><g fill="#053768" fill-opacity="1"><g transform="translate(130.786819, 88.756075)"><g><path d="M -1.71875 4.484375 C -1.894531 5.046875 -1.9375 5.613281 -1.84375 6.1875 C -1.75 6.757812 -1.546875 7.296875 -1.234375 7.796875 C -0.921875 8.296875 -0.519531 8.738281 -0.03125 9.125 C 0.445312 9.519531 0.984375 9.8125 1.578125 10 C 2.171875 10.195312 2.773438 10.273438 3.390625 10.234375 C 4.015625 10.203125 4.59375 10.070312 5.125 9.84375 C 5.664062 9.613281 6.140625 9.289062 6.546875 8.875 C 6.960938 8.46875 7.257812 7.984375 7.4375 7.421875 C 7.613281 6.867188 7.65625 6.304688 7.5625 5.734375 C 7.46875 5.171875 7.269531 4.632812 6.96875 4.125 C 6.664062 3.625 6.269531 3.175781 5.78125 2.78125 C 5.300781 2.394531 4.765625 2.101562 4.171875 1.90625 C 3.578125 1.71875 2.96875 1.640625 2.34375 1.671875 C 1.726562 1.710938 1.144531 1.847656 0.59375 2.078125 C 0.0507812 2.316406 -0.421875 2.640625 -0.828125 3.046875 C -1.242188 3.453125 -1.539062 3.929688 -1.71875 4.484375 Z M 7.203125 7.359375 C 7.078125 7.742188 6.90625 8.066406 6.6875 8.328125 C 6.46875 8.597656 6.179688 8.785156 5.828125 8.890625 C 5.472656 9.003906 5.039062 9.039062 4.53125 9 C 4.03125 8.957031 3.4375 8.828125 2.75 8.609375 L 1.4375 8.1875 C 0.175781 7.78125 -0.6875 7.269531 -1.15625 6.65625 C -1.632812 6.050781 -1.742188 5.351562 -1.484375 4.5625 C -1.234375 3.769531 -0.738281 3.257812 0 3.03125 C 0.738281 2.8125 1.738281 2.90625 3 3.3125 L 4.3125 3.734375 C 4.988281 3.953125 5.539062 4.191406 5.96875 4.453125 C 6.394531 4.710938 6.722656 4.988281 6.953125 5.28125 C 7.179688 5.582031 7.3125 5.90625 7.34375 6.25 C 7.375 6.59375 7.328125 6.960938 7.203125 7.359375 Z M 7.203125 7.359375 "/></g></g></g><g fill="#053768" fill-opacity="1"><g transform="translate(123.32405, 106.549484)"><g><path d="M 5.09375 8.734375 L 7.296875 5.625 L 7.109375 5.5 L 6.421875 6.46875 L -0.734375 1.40625 L -0.046875 0.4375 L -0.21875 0.3125 L -2.359375 3.328125 L -2.1875 3.453125 L -1.5 2.5 L 1.78125 4.828125 L 0.953125 5.984375 C 0.710938 6.316406 0.546875 6.648438 0.453125 6.984375 C 0.367188 7.328125 0.347656 7.65625 0.390625 7.96875 C 0.429688 8.289062 0.535156 8.59375 0.703125 8.875 C 0.878906 9.164062 1.125 9.421875 1.4375 9.640625 C 1.726562 9.847656 2.035156 9.984375 2.359375 10.046875 C 2.691406 10.117188 3.019531 10.117188 3.34375 10.046875 C 3.664062 9.972656 3.972656 9.820312 4.265625 9.59375 C 4.566406 9.375 4.84375 9.085938 5.09375 8.734375 Z M 1.96875 4.953125 L 5.65625 7.5625 L 4.90625 8.609375 C 4.613281 9.023438 4.257812 9.265625 3.84375 9.328125 C 3.4375 9.390625 2.929688 9.207031 2.328125 8.78125 L 1.9375 8.5 C 1.351562 8.082031 1.007812 7.664062 0.90625 7.25 C 0.8125 6.84375 0.890625 6.460938 1.140625 6.109375 Z M 1.96875 4.953125 "/></g></g></g><g fill="#053768" fill-opacity="1"><g transform="translate(112.202844, 119.82092)"><g><path d="M 0.59375 5.546875 L -0.265625 6.21875 C -0.421875 6.34375 -0.5625 6.414062 -0.6875 6.4375 C -0.820312 6.46875 -0.945312 6.460938 -1.0625 6.421875 C -1.1875 6.378906 -1.3125 6.304688 -1.4375 6.203125 C -1.570312 6.109375 -1.707031 5.992188 -1.84375 5.859375 C -1.957031 5.765625 -2.035156 5.734375 -2.078125 5.765625 C -2.117188 5.796875 -2.097656 5.863281 -2.015625 5.96875 L -0.3125 8.15625 C -0.25 8.238281 -0.195312 8.265625 -0.15625 8.234375 C -0.113281 8.203125 -0.113281 8.128906 -0.15625 8.015625 C -0.25 7.847656 -0.328125 7.691406 -0.390625 7.546875 C -0.460938 7.398438 -0.503906 7.257812 -0.515625 7.125 C -0.523438 7 -0.503906 6.875 -0.453125 6.75 C -0.398438 6.632812 -0.296875 6.515625 -0.140625 6.390625 L 0.71875 5.71875 L 3.203125 8.890625 L 1.546875 10.1875 C 1.304688 10.375 1.054688 10.472656 0.796875 10.484375 C 0.535156 10.492188 0.285156 10.445312 0.046875 10.34375 C -0.179688 10.25 -0.394531 10.125 -0.59375 9.96875 C -0.800781 9.8125 -0.972656 9.660156 -1.109375 9.515625 C -1.179688 9.410156 -1.242188 9.378906 -1.296875 9.421875 C -1.347656 9.460938 -1.335938 9.53125 -1.265625 9.625 L 0.015625 11.265625 C 0.148438 11.429688 0.304688 11.441406 0.484375 11.296875 L 5.3125 7.53125 L 5.171875 7.359375 L 4.25 8.078125 L -1.140625 1.171875 L -0.234375 0.453125 L -0.375 0.28125 L -5.4375 4.25 C -5.644531 4.40625 -5.660156 4.597656 -5.484375 4.828125 L -4.203125 6.453125 C -4.078125 6.628906 -3.984375 6.695312 -3.921875 6.65625 C -3.878906 6.613281 -3.898438 6.507812 -3.984375 6.34375 C -4.148438 6.019531 -4.285156 5.71875 -4.390625 5.4375 C -4.492188 5.164062 -4.554688 4.90625 -4.578125 4.65625 C -4.597656 4.414062 -4.554688 4.1875 -4.453125 3.96875 C -4.347656 3.75 -4.175781 3.546875 -3.9375 3.359375 L -2.1875 1.984375 Z M 0.59375 5.546875 "/></g></g></g><g fill="#053768" fill-opacity="1"><g transform="translate(97.404183, 129.570745)"><g><path d="M -6.5625 3.125 C -6.5 3.1875 -6.429688 3.289062 -6.359375 3.4375 C -6.285156 3.59375 -6.210938 3.757812 -6.140625 3.9375 C -6.066406 4.125 -5.992188 4.304688 -5.921875 4.484375 C -5.847656 4.671875 -5.765625 4.84375 -5.671875 5 C -5.492188 5.332031 -5.304688 5.585938 -5.109375 5.765625 C -4.910156 5.941406 -4.695312 6.066406 -4.46875 6.140625 C -4.238281 6.222656 -4 6.257812 -3.75 6.25 C -3.5 6.238281 -3.226562 6.21875 -2.9375 6.1875 C -3.5625 6.5625 -3.984375 6.992188 -4.203125 7.484375 C -4.429688 7.984375 -4.441406 8.503906 -4.234375 9.046875 C -4.109375 9.378906 -3.925781 9.644531 -3.6875 9.84375 C -3.445312 10.050781 -3.171875 10.203125 -2.859375 10.296875 C -2.554688 10.390625 -2.222656 10.421875 -1.859375 10.390625 C -1.492188 10.359375 -1.125 10.269531 -0.75 10.125 L 2.859375 8.765625 L 2.78125 8.5625 L 1.6875 8.96875 L -1.421875 0.765625 L -0.328125 0.359375 L -0.40625 0.15625 L -3.859375 1.46875 L -3.78125 1.671875 L -2.6875 1.25 L -1.09375 5.4375 L -2.140625 5.828125 C -2.273438 5.878906 -2.429688 5.910156 -2.609375 5.921875 C -2.785156 5.941406 -2.960938 5.910156 -3.140625 5.828125 C -3.316406 5.742188 -3.5 5.601562 -3.6875 5.40625 C -3.875 5.207031 -4.066406 4.929688 -4.265625 4.578125 C -4.367188 4.367188 -4.46875 4.148438 -4.5625 3.921875 C -4.65625 3.691406 -4.75 3.472656 -4.84375 3.265625 C -4.945312 3.066406 -5.054688 2.882812 -5.171875 2.71875 C -5.296875 2.5625 -5.445312 2.441406 -5.625 2.359375 C -5.78125 2.285156 -5.9375 2.253906 -6.09375 2.265625 C -6.257812 2.273438 -6.429688 2.3125 -6.609375 2.375 C -6.753906 2.4375 -6.894531 2.507812 -7.03125 2.59375 C -7.164062 2.675781 -7.285156 2.757812 -7.390625 2.84375 C -7.492188 2.9375 -7.582031 3.023438 -7.65625 3.109375 C -7.726562 3.203125 -7.78125 3.273438 -7.8125 3.328125 C -7.820312 3.359375 -7.820312 3.382812 -7.8125 3.40625 C -7.800781 3.4375 -7.785156 3.445312 -7.765625 3.4375 C -7.742188 3.4375 -7.722656 3.421875 -7.703125 3.390625 C -7.566406 3.203125 -7.394531 3.066406 -7.1875 2.984375 C -6.914062 2.890625 -6.707031 2.9375 -6.5625 3.125 Z M -1.015625 5.65625 L 0.421875 9.453125 L -0.828125 9.921875 C -1.804688 10.296875 -2.507812 9.921875 -2.9375 8.796875 L -3.109375 8.34375 C -3.523438 7.238281 -3.242188 6.5 -2.265625 6.125 Z M -1.015625 5.65625 "/></g></g></g></svg>