<svg xmlns="http://www.w3.org/2000/svg" xmlns:xlink="http://www.w3.org/1999/xlink" width="100" zoomAndPan="magnify" viewBox="0 0 75 74.999997" height="100" preserveAspectRatio="xMidYMid meet" version="1.0"><defs><clipPath id="293e8dca3e"><path d="M 1.988281 1.988281 L 73.238281 1.988281 L 73.238281 73.238281 L 1.988281 73.238281 Z M 1.988281 1.988281 " clip-rule="nonzero"/></clipPath></defs><path fill="#8d8d99" d="M 37.613281 29.714844 C 33.261719 29.714844 29.714844 33.261719 29.714844 37.613281 C 29.714844 41.960938 33.261719 45.507812 37.613281 45.507812 C 41.960938 45.507812 45.507812 41.960938 45.507812 37.613281 C 45.507812 33.261719 41.960938 29.714844 37.613281 29.714844 Z M 37.613281 29.714844 " fill-opacity="1" fill-rule="nonzero"/><path fill="#8d8d99" d="M 48.222656 18.242188 L 27.003906 18.242188 C 22.191406 18.242188 18.242188 22.160156 18.242188 27.003906 L 18.242188 48.222656 C 18.242188 53.035156 22.160156 56.984375 27.003906 56.984375 L 48.222656 56.984375 C 53.035156 56.984375 56.984375 53.066406 56.984375 48.222656 L 56.984375 27.003906 C 56.953125 22.160156 53.035156 18.242188 48.222656 18.242188 Z M 37.613281 49.488281 C 31.042969 49.488281 25.707031 44.152344 25.707031 37.582031 C 25.707031 31.011719 31.042969 25.675781 37.613281 25.675781 C 44.183594 25.675781 49.519531 31.011719 49.519531 37.582031 C 49.488281 44.152344 44.152344 49.488281 37.613281 49.488281 Z M 50.351562 27.679688 C 48.777344 27.679688 47.484375 26.386719 47.484375 24.8125 C 47.484375 23.238281 48.777344 21.945312 50.351562 21.945312 C 51.925781 21.945312 53.21875 23.238281 53.21875 24.8125 C 53.21875 26.417969 51.953125 27.679688 50.351562 27.679688 Z M 50.351562 27.679688 " fill-opacity="1" fill-rule="nonzero"/><g clip-path="url(#293e8dca3e)"><path fill="#8d8d99" d="M 37.613281 1.988281 C 17.933594 1.988281 1.988281 17.933594 1.988281 37.613281 C 1.988281 57.292969 17.933594 73.238281 37.613281 73.238281 C 57.292969 73.238281 73.238281 57.292969 73.238281 37.613281 C 73.207031 17.933594 57.261719 1.988281 37.613281 1.988281 Z M 60.960938 48.222656 C 60.960938 55.253906 55.222656 60.992188 48.191406 60.992188 L 27.003906 60.992188 C 19.96875 60.992188 14.234375 55.253906 14.234375 48.222656 L 14.234375 27.003906 C 14.234375 19.96875 19.96875 14.234375 27.003906 14.234375 L 48.222656 14.234375 C 55.253906 14.234375 60.992188 19.96875 60.992188 27.003906 L 60.992188 48.222656 Z M 60.960938 48.222656 " fill-opacity="1" fill-rule="nonzero"/></g></svg>