<svg xmlns="http://www.w3.org/2000/svg" xmlns:xlink="http://www.w3.org/1999/xlink" width="100" zoomAndPan="magnify" viewBox="0 0 75 74.999997" height="100" preserveAspectRatio="xMidYMid meet" version="1.0"><defs><clipPath id="603acbbabe"><path d="M 0.636719 0.636719 L 74.136719 0.636719 L 74.136719 74 L 0.636719 74 Z M 0.636719 0.636719 " clip-rule="nonzero"/></clipPath><clipPath id="72cbef4f65"><path d="M 0.636719 0.636719 L 38 0.636719 L 38 74 L 0.636719 74 Z M 0.636719 0.636719 " clip-rule="nonzero"/></clipPath></defs><g clip-path="url(#603acbbabe)"><path fill="#ffc44d" d="M 3.371094 0.464844 C 2.636719 0.464844 1.9375 0.78125 1.449219 1.332031 C 0.964844 1.886719 0.738281 2.617188 0.828125 3.347656 L 7.664062 58.046875 C 7.773438 58.898438 8.296875 59.636719 9.0625 60.019531 L 36.410156 73.695312 C 37.132812 74.058594 37.984375 74.058594 38.703125 73.695312 L 66.054688 60.019531 C 66.820312 59.636719 67.34375 58.898438 67.453125 58.046875 L 74.289062 3.347656 C 74.378906 2.617188 74.152344 1.886719 73.667969 1.332031 C 73.179688 0.78125 72.480469 0.464844 71.746094 0.464844 Z M 3.371094 0.464844 " fill-opacity="1" fill-rule="nonzero"/></g><g clip-path="url(#72cbef4f65)"><path fill="#e5b045" d="M 37.558594 0.464844 L 37.558594 73.964844 C 37.164062 73.964844 36.773438 73.875 36.410156 73.695312 L 9.0625 60.019531 C 8.296875 59.636719 7.773438 58.898438 7.664062 58.046875 L 0.828125 3.347656 C 0.738281 2.617188 0.964844 1.886719 1.449219 1.332031 C 1.9375 0.78125 2.636719 0.464844 3.371094 0.464844 Z M 37.558594 0.464844 " fill-opacity="1" fill-rule="evenodd"/></g><path fill="#cfd8dc" d="M 32.429688 10.722656 C 33.847656 10.722656 34.996094 11.871094 34.996094 13.285156 L 34.996094 57.726562 C 34.996094 58.640625 34.507812 59.488281 33.71875 59.945312 C 32.925781 60.40625 31.953125 60.40625 31.160156 59.953125 L 19.195312 53.117188 C 17.964844 52.414062 17.539062 50.847656 18.238281 49.617188 C 18.941406 48.390625 20.507812 47.960938 21.738281 48.664062 L 29.867188 53.308594 L 29.867188 13.285156 C 29.867188 11.871094 31.015625 10.722656 32.429688 10.722656 Z M 32.429688 10.722656 " fill-opacity="1" fill-rule="evenodd"/><path fill="#eceff1" d="M 40.125 13.285156 C 40.125 11.871094 41.269531 10.722656 42.6875 10.722656 L 59.78125 10.722656 C 61.195312 10.722656 62.34375 11.871094 62.34375 13.285156 C 62.34375 14.703125 61.195312 15.851562 59.78125 15.851562 L 45.25 15.851562 L 45.25 32.3125 L 57.515625 29.585938 C 58.3125 29.40625 59.148438 29.621094 59.765625 30.164062 C 60.378906 30.703125 60.699219 31.503906 60.625 32.320312 L 58.914062 51.125 C 58.835938 52.007812 58.300781 52.789062 57.507812 53.183594 L 43.832031 60.019531 C 42.566406 60.65625 41.027344 60.140625 40.394531 58.875 C 39.761719 57.609375 40.273438 56.066406 41.539062 55.433594 L 53.9375 49.238281 L 55.199219 35.351562 L 43.242188 38.011719 C 42.484375 38.179688 41.6875 37.992188 41.082031 37.507812 C 40.476562 37.019531 40.125 36.285156 40.125 35.507812 Z M 40.125 13.285156 " fill-opacity="1" fill-rule="evenodd"/></svg>