<svg xmlns="http://www.w3.org/2000/svg" xmlns:xlink="http://www.w3.org/1999/xlink" width="100" zoomAndPan="magnify" viewBox="0 0 75 74.999997" height="100" preserveAspectRatio="xMidYMid meet" version="1.0"><defs><clipPath id="a7f083beac"><path d="M 2.210938 2.210938 L 72.710938 2.210938 L 72.710938 72.710938 L 2.210938 72.710938 Z M 2.210938 2.210938 " clip-rule="nonzero"/></clipPath></defs><g clip-path="url(#a7f083beac)"><path fill="#8d8d99" d="M 37.460938 2.210938 C 17.992188 2.210938 2.210938 17.992188 2.210938 37.460938 C 2.210938 56.929688 17.992188 72.710938 37.460938 72.710938 C 56.929688 72.710938 72.710938 56.929688 72.710938 37.460938 C 72.710938 17.992188 56.929688 2.210938 37.460938 2.210938 Z M 26.824219 54.742188 L 19.414062 54.742188 L 19.414062 31.265625 L 26.824219 31.265625 Z M 22.929688 28.328125 L 22.875 28.328125 C 20.195312 28.328125 18.457031 26.535156 18.457031 24.257812 C 18.457031 21.980469 20.246094 20.183594 22.980469 20.183594 C 25.71875 20.183594 27.394531 21.933594 27.453125 24.253906 C 27.453125 26.527344 25.71875 28.328125 22.933594 28.328125 Z M 56.46875 54.742188 L 48.066406 54.742188 L 48.066406 42.589844 C 48.066406 39.410156 46.75 37.242188 43.859375 37.242188 C 41.648438 37.242188 40.421875 38.707031 39.847656 40.117188 C 39.632812 40.625 39.667969 41.328125 39.667969 42.035156 L 39.667969 54.738281 L 31.347656 54.738281 C 31.347656 54.738281 31.453125 33.21875 31.347656 31.261719 L 39.667969 31.261719 L 39.667969 34.945312 C 40.160156 33.335938 42.820312 31.035156 47.066406 31.035156 C 52.332031 31.035156 56.46875 34.414062 56.46875 41.683594 Z M 56.46875 54.742188 " fill-opacity="1" fill-rule="nonzero"/></g></svg>