<svg id="Grupo_315" data-name="Grupo 315" xmlns="http://www.w3.org/2000/svg" xmlns:xlink="http://www.w3.org/1999/xlink" width="235.556" height="39.778" viewBox="0 0 235.556 39.778">
  <defs>
    <clipPath id="clip-path">
      <rect id="Ret창ngulo_4" data-name="Ret창ngulo 4" width="235.556" height="39.778" fill="none"/>
    </clipPath>
  </defs>
  <rect id="Ret창ngulo_3" data-name="Ret창ngulo 3" width="16.906" height="4.222" transform="translate(176.533 35.556)" fill="#f6a500"/>
  <g id="Grupo_6" data-name="Grupo 6">
    <g id="Grupo_5" data-name="Grupo 5" clip-path="url(#clip-path)">
      <path id="Caminho_8" data-name="Caminho 8" d="M14.659,39.772V35.564h-1.8a8.051,8.051,0,0,1-1.711-.139,1.963,1.963,0,0,1-.972-.509,2.164,2.164,0,0,1-.531-1.064,8.818,8.818,0,0,1-.162-1.9V24.5A5.722,5.722,0,0,0,9.2,22.6a4.229,4.229,0,0,0-.694-1.3,3.944,3.944,0,0,0-.971-.856,7.639,7.639,0,0,0-1.11-.578,7.6,7.6,0,0,0,1.11-.578,3.934,3.934,0,0,0,.971-.855A4.338,4.338,0,0,0,9.2,17.142a5.725,5.725,0,0,0,.278-1.9V7.808a8.658,8.658,0,0,1,.162-1.889,2.166,2.166,0,0,1,.531-1.064,1.963,1.963,0,0,1,.972-.509,8.056,8.056,0,0,1,1.711-.139h1.8V0H11.376A9.619,9.619,0,0,0,8.416.393,4.987,4.987,0,0,0,6.428,1.565,5.151,5.151,0,0,0,5.133,3.623a9.05,9.05,0,0,0-.37,2.79v7.7a3.809,3.809,0,0,1-.832,2.767,3.246,3.246,0,0,1-.9.624,3.046,3.046,0,0,1-1.318.254H0v4.209H1.711a3.035,3.035,0,0,1,1.318.254,3.222,3.222,0,0,1,.9.624,3.828,3.828,0,0,1,.832,2.774v7.724a9.1,9.1,0,0,0,.37,2.8A5.156,5.156,0,0,0,6.428,38.2a4.919,4.919,0,0,0,1.989,1.179,9.619,9.619,0,0,0,2.959.393Z" fill="#f6a500"/>
      <path id="Caminho_9" data-name="Caminho 9" d="M608.69,21.967V17.759h-1.664a3.2,3.2,0,0,1-1.341-.254,3.152,3.152,0,0,1-.925-.624,3.808,3.808,0,0,1-.832-2.767v-7.7a9.052,9.052,0,0,0-.37-2.79,5.151,5.151,0,0,0-1.294-2.058A4.99,4.99,0,0,0,600.274.393,9.622,9.622,0,0,0,597.315,0h-3.284V4.208h1.8a8.087,8.087,0,0,1,1.711.139,1.959,1.959,0,0,1,.971.509,2.163,2.163,0,0,1,.532,1.064,8.653,8.653,0,0,1,.162,1.888v7.438a5.73,5.73,0,0,0,.277,1.9,4.029,4.029,0,0,0,.717,1.287,4.351,4.351,0,0,0,.994.855,7.657,7.657,0,0,0,1.11.578,7.657,7.657,0,0,0-1.11.578,4.352,4.352,0,0,0-.994.856,3.946,3.946,0,0,0-.717,1.3,5.726,5.726,0,0,0-.277,1.9v7.454a8.817,8.817,0,0,1-.162,1.9,2.166,2.166,0,0,1-.532,1.064,1.961,1.961,0,0,1-.971.508,8.057,8.057,0,0,1-1.711.139h-1.8v4.208h3.284a9.622,9.622,0,0,0,2.96-.393,4.93,4.93,0,0,0,1.988-1.179,5.152,5.152,0,0,0,1.294-2.058,9.1,9.1,0,0,0,.37-2.8V25.621a3.829,3.829,0,0,1,.832-2.775,3.13,3.13,0,0,1,.925-.624,3.19,3.19,0,0,1,1.341-.255Z" transform="translate(-373.134)" fill="#f6a500"/>
      <path id="Caminho_10" data-name="Caminho 10" d="M207.248,41.74V26.063q0-8.047-9.665-8.047c-.189,0-.374,0-.557.007v4.022q.182-.005.372,0a5.774,5.774,0,0,1,3.954,1.087,4.283,4.283,0,0,1,1.179,3.306V28.1h-6.2q-4.07,0-6.082,1.9a6.379,6.379,0,0,0-2.012,4.856,7.01,7.01,0,0,0,1.85,5.041,6.762,6.762,0,0,0,2.567,1.595,11.257,11.257,0,0,0,3.723.532,9.7,9.7,0,0,0,3.561-.555,8.081,8.081,0,0,0,2.682-1.85V41.74Zm-4.717-8.463a4.807,4.807,0,0,1-1.017,3.468,3.865,3.865,0,0,1-1.988,1.133,12.561,12.561,0,0,1-2.4.208,5.094,5.094,0,0,1-3.26-.856,3.019,3.019,0,0,1-1.04-2.474,3.056,3.056,0,0,1,1.064-2.5,4.844,4.844,0,0,1,3.144-.878h5.5ZM150.895,18.129a8.105,8.105,0,0,0-2.189.673,6.7,6.7,0,0,0-2.59,2.035V18.293h-4.624V41.74h4.717V27.5a5.323,5.323,0,0,1,1.364-3.861,4.43,4.43,0,0,1,3.307-1.411h.016Zm-43.656,0a8.119,8.119,0,0,0-2.19.673,6.705,6.705,0,0,0-2.59,2.035V18.293H97.835V41.74h4.717V27.5a5.321,5.321,0,0,1,1.364-3.861,4.431,4.431,0,0,1,3.307-1.411h.016ZM95.763,31.381V29.3a14.865,14.865,0,0,0-.67-4.578A10.183,10.183,0,0,0,93.15,21.16a8.831,8.831,0,0,0-3.122-2.312,10.146,10.146,0,0,0-4.208-.833,9.164,9.164,0,0,0-7.261,3.122q-2.728,3.121-2.728,8.856a16.558,16.558,0,0,0,.84,5.642,9.965,9.965,0,0,0,2.266,3.723,8.361,8.361,0,0,0,3.346,2.035,13.315,13.315,0,0,0,4.138.624q.275,0,.539-.007v-4.07q-.218.007-.446.007a5.561,5.561,0,0,1-4.44-1.758,7.087,7.087,0,0,1-1.526-4.809ZM91.093,28.1H80.549q.046-1.064.138-1.734a5.118,5.118,0,0,1,.462-1.457,4.663,4.663,0,0,1,1.781-2.15,5.121,5.121,0,0,1,2.89-.81,5.01,5.01,0,0,1,2.867.81,4.711,4.711,0,0,1,1.757,2.15,5.78,5.78,0,0,1,.485,1.457,14.149,14.149,0,0,1,.162,1.734m-17.363,1.9q0-1.341-.069-2.728a16.748,16.748,0,0,0-.347-2.682,11.69,11.69,0,0,0-.809-2.451A6.97,6.97,0,0,0,71.094,20.1,6.734,6.734,0,0,0,68.62,18.57a9.348,9.348,0,0,0-3.26-.555,9.182,9.182,0,0,0-3.4.578,7.177,7.177,0,0,0-2.8,2.2v-2.5H54.539V45.125h4.717v-5.79a7.077,7.077,0,0,0,2.775,2.1,9.935,9.935,0,0,0,6.613.023,6.766,6.766,0,0,0,2.451-1.526A6.97,6.97,0,0,0,72.505,37.9a11.626,11.626,0,0,0,.809-2.475,17.268,17.268,0,0,0,.347-2.705q.069-1.388.069-2.729m-4.717,0a26.205,26.205,0,0,1-.162,2.983,8.02,8.02,0,0,1-.671,2.5,4,4,0,0,1-1.48,1.711,5.539,5.539,0,0,1-5.109,0,4.229,4.229,0,0,1-1.481-1.711,7.648,7.648,0,0,1-.693-2.5,27.586,27.586,0,0,1,0-5.966,7.4,7.4,0,0,1,.693-2.474,4.258,4.258,0,0,1,1.481-1.688,5.536,5.536,0,0,1,5.109,0,4.024,4.024,0,0,1,1.48,1.688,7.754,7.754,0,0,1,.671,2.474,26.2,26.2,0,0,1,.162,2.983m49.816-7.676V18.709h-4.671V15.333a2.967,2.967,0,0,1,.624-2.011,2.474,2.474,0,0,1,1.966-.717h2.081V8.581H115.87A6.8,6.8,0,0,0,113,9.136a5.842,5.842,0,0,0-1.988,1.456,6.043,6.043,0,0,0-1.179,2.082,7.635,7.635,0,0,0-.393,2.428V41.74h4.717V22.317Zm20.408,7.676a21.816,21.816,0,0,0-.555-5.2,8.828,8.828,0,0,0-2.22-4,9.26,9.26,0,0,0-2.89-1.988,9.966,9.966,0,0,0-4.138-.786,9.806,9.806,0,0,0-4.116.786,9.34,9.34,0,0,0-2.867,1.988,8.834,8.834,0,0,0-2.22,4,21.815,21.815,0,0,0-.555,5.2,22.042,22.042,0,0,0,.555,5.25,8.834,8.834,0,0,0,2.22,4,9.327,9.327,0,0,0,2.867,1.988,9.8,9.8,0,0,0,4.116.786,9.96,9.96,0,0,0,4.138-.786,9.248,9.248,0,0,0,2.89-1.988,8.828,8.828,0,0,0,2.22-4,22.043,22.043,0,0,0,.555-5.25m-4.717,0a22.9,22.9,0,0,1-.277,3.654,4.918,4.918,0,0,1-1.342,2.775,4.7,4.7,0,0,1-3.468,1.387,4.649,4.649,0,0,1-3.422-1.387,4.913,4.913,0,0,1-1.341-2.775,24.166,24.166,0,0,1,0-7.307,4.912,4.912,0,0,1,1.341-2.775,4.632,4.632,0,0,1,3.422-1.341,4.691,4.691,0,0,1,3.468,1.341,4.917,4.917,0,0,1,1.342,2.775,22.9,22.9,0,0,1,.277,3.653M186.439,41.74V26.756a10.87,10.87,0,0,0-.578-3.63,7.928,7.928,0,0,0-1.919-2.983,7.307,7.307,0,0,0-2.59-1.572,9.682,9.682,0,0,0-3.33-.555,9.077,9.077,0,0,0-7.353,3.422,7.409,7.409,0,0,0-6.659-3.422,8.9,8.9,0,0,0-3.4.67,7.924,7.924,0,0,0-2.844,1.966V18.293h-4.624V41.74h4.717V27.45a4.678,4.678,0,0,1,4.855-5.226,4.787,4.787,0,0,1,3.353,1.248,5.158,5.158,0,0,1,1.364,3.978V41.74h4.717V27.219a5.7,5.7,0,0,1,.393-2.2,4.424,4.424,0,0,1,1.064-1.572,4.268,4.268,0,0,1,1.549-.925,5.674,5.674,0,0,1,1.85-.3,4.787,4.787,0,0,1,3.353,1.248,5.157,5.157,0,0,1,1.364,3.978V41.74ZM236.2,18.293h-4.717V41.74H236.2Zm.139-6.7h-4.994v4.994h4.994ZM250.215,41.74V37.717h-1.943A2.472,2.472,0,0,1,246.308,37a2.966,2.966,0,0,1-.624-2.012V22.317h4.532V18.709h-4.532V11.587h-4.717V35.22a7.623,7.623,0,0,0,.393,2.428,6.024,6.024,0,0,0,1.179,2.081,5.843,5.843,0,0,0,1.989,1.457,6.8,6.8,0,0,0,2.867.555Z" transform="translate(-34.258 -5.39)" fill="#575756"/>
    </g>
  </g>
</svg>
