<svg xmlns="http://www.w3.org/2000/svg" xmlns:xlink="http://www.w3.org/1999/xlink" width="100" zoomAndPan="magnify" viewBox="0 0 75 74.999997" height="100" preserveAspectRatio="xMidYMid meet" version="1.0"><defs><clipPath id="f8c65a0c97"><path d="M 0.859375 4 L 74.359375 4 L 74.359375 71 L 0.859375 71 Z M 0.859375 4 " clip-rule="nonzero"/></clipPath></defs><g clip-path="url(#f8c65a0c97)"><path fill="#00d8ff" d="M 61.261719 26.039062 C 60.480469 25.769531 59.691406 25.523438 58.898438 25.296875 C 59.03125 24.75 59.15625 24.214844 59.265625 23.6875 C 61.054688 15.019531 59.882812 8.039062 55.886719 5.742188 C 52.054688 3.539062 45.785156 5.835938 39.457031 11.328125 C 38.832031 11.871094 38.222656 12.429688 37.625 13.003906 C 37.226562 12.621094 36.820312 12.25 36.410156 11.882812 C 29.773438 6.007812 23.125 3.53125 19.132812 5.835938 C 15.300781 8.046875 14.167969 14.609375 15.78125 22.824219 C 15.941406 23.636719 16.121094 24.445312 16.324219 25.25 C 15.382812 25.515625 14.472656 25.800781 13.605469 26.101562 C 5.824219 28.804688 0.859375 33.042969 0.859375 37.441406 C 0.859375 41.980469 6.191406 46.535156 14.292969 49.296875 C 14.949219 49.519531 15.609375 49.726562 16.277344 49.914062 C 16.0625 50.78125 15.871094 51.652344 15.703125 52.53125 C 14.164062 60.597656 15.363281 67.007812 19.183594 69.203125 C 23.128906 71.472656 29.75 69.140625 36.195312 63.523438 C 36.71875 63.066406 37.226562 62.59375 37.726562 62.113281 C 38.371094 62.734375 39.035156 63.335938 39.714844 63.917969 C 45.957031 69.277344 52.125 71.441406 55.9375 69.238281 C 59.878906 66.964844 61.160156 60.082031 59.496094 51.707031 C 59.367188 51.050781 59.21875 50.398438 59.058594 49.746094 C 59.523438 49.609375 59.980469 49.46875 60.421875 49.320312 C 68.847656 46.539062 74.324219 42.039062 74.324219 37.441406 C 74.324219 33.027344 69.199219 28.761719 61.261719 26.039062 Z M 59.4375 46.351562 C 59.035156 46.484375 58.621094 46.613281 58.203125 46.734375 C 57.273438 43.800781 56.019531 40.679688 54.480469 37.457031 C 55.949219 34.308594 57.152344 31.226562 58.058594 28.308594 C 58.808594 28.527344 59.539062 28.757812 60.242188 28.996094 C 67.039062 31.332031 71.1875 34.78125 71.1875 37.441406 C 71.1875 40.273438 66.707031 43.949219 59.4375 46.351562 Z M 56.417969 52.3125 C 57.15625 56.015625 57.257812 59.363281 56.773438 61.980469 C 56.335938 64.335938 55.453125 65.902344 54.367188 66.53125 C 52.050781 67.867188 47.101562 66.128906 41.761719 61.546875 C 41.128906 61.003906 40.511719 60.445312 39.914062 59.867188 C 41.984375 57.609375 44.050781 54.984375 46.070312 52.070312 C 49.625 51.757812 52.976562 51.242188 56.019531 50.542969 C 56.167969 51.128906 56.300781 51.71875 56.417969 52.3125 Z M 25.90625 66.300781 C 23.644531 67.09375 21.839844 67.117188 20.75 66.492188 C 18.433594 65.160156 17.472656 60.015625 18.785156 53.113281 C 18.941406 52.296875 19.121094 51.488281 19.320312 50.679688 C 22.332031 51.34375 25.660156 51.824219 29.222656 52.109375 C 31.253906 54.960938 33.382812 57.585938 35.527344 59.878906 C 35.074219 60.320312 34.605469 60.75 34.128906 61.164062 C 31.277344 63.648438 28.421875 65.414062 25.90625 66.300781 Z M 15.308594 46.332031 C 11.726562 45.113281 8.765625 43.527344 6.738281 41.792969 C 4.917969 40.238281 3.996094 38.695312 3.996094 37.441406 C 3.996094 34.773438 7.984375 31.371094 14.636719 29.058594 C 15.445312 28.777344 16.289062 28.511719 17.164062 28.265625 C 18.085938 31.246094 19.292969 34.363281 20.746094 37.515625 C 19.273438 40.714844 18.050781 43.882812 17.121094 46.898438 C 16.511719 46.726562 15.90625 46.539062 15.308594 46.332031 Z M 18.859375 22.222656 C 17.480469 15.1875 18.394531 9.878906 20.703125 8.546875 C 23.160156 7.128906 28.597656 9.148438 34.324219 14.222656 C 34.699219 14.554688 35.066406 14.890625 35.425781 15.238281 C 33.292969 17.523438 31.183594 20.125 29.167969 22.960938 C 25.714844 23.277344 22.40625 23.792969 19.363281 24.480469 C 19.175781 23.730469 19.007812 22.976562 18.859375 22.222656 Z M 50.550781 30.023438 C 49.832031 28.789062 49.085938 27.566406 48.316406 26.359375 C 50.660156 26.65625 52.90625 27.050781 55.015625 27.527344 C 54.382812 29.550781 53.59375 31.667969 52.664062 33.835938 C 51.984375 32.550781 51.28125 31.28125 50.550781 30.023438 Z M 37.628906 17.472656 C 39.074219 19.039062 40.523438 20.78125 41.949219 22.675781 C 39.058594 22.542969 36.160156 22.539062 33.265625 22.675781 C 34.695312 20.800781 36.15625 19.054688 37.628906 17.472656 Z M 24.621094 30.046875 C 23.898438 31.292969 23.207031 32.554688 22.546875 33.835938 C 21.632812 31.671875 20.851562 29.546875 20.210938 27.496094 C 22.308594 27.027344 24.542969 26.644531 26.871094 26.355469 C 26.09375 27.566406 25.34375 28.796875 24.621094 30.046875 Z M 26.941406 48.746094 C 24.535156 48.480469 22.265625 48.117188 20.167969 47.664062 C 20.816406 45.574219 21.617188 43.402344 22.550781 41.195312 C 23.214844 42.476562 23.910156 43.738281 24.632812 44.984375 C 25.378906 46.265625 26.148438 47.523438 26.941406 48.746094 Z M 37.714844 57.628906 C 36.226562 56.027344 34.742188 54.257812 33.292969 52.351562 C 34.699219 52.40625 36.132812 52.433594 37.589844 52.433594 C 39.089844 52.433594 40.570312 52.402344 42.027344 52.335938 C 40.597656 54.277344 39.152344 56.050781 37.714844 57.628906 Z M 52.695312 41.082031 C 53.675781 43.3125 54.503906 45.472656 55.160156 47.527344 C 53.03125 48.011719 50.730469 48.402344 48.308594 48.691406 C 49.085938 47.464844 49.835938 46.222656 50.5625 44.964844 C 51.300781 43.6875 52.011719 42.390625 52.695312 41.082031 Z M 47.84375 43.402344 C 46.730469 45.328125 45.554688 47.21875 44.320312 49.070312 C 42.082031 49.230469 39.835938 49.308594 37.589844 49.304688 C 35.304688 49.304688 33.082031 49.234375 30.941406 49.097656 C 29.671875 47.25 28.472656 45.355469 27.347656 43.417969 C 26.230469 41.492188 25.183594 39.519531 24.214844 37.515625 C 25.183594 35.507812 26.222656 33.539062 27.339844 31.609375 C 28.453125 29.679688 29.644531 27.792969 30.902344 25.953125 C 33.085938 25.789062 35.328125 25.703125 37.589844 25.703125 C 39.867188 25.703125 42.109375 25.789062 44.292969 25.957031 C 45.539062 27.792969 46.722656 29.671875 47.835938 31.59375 C 48.953125 33.515625 50.007812 35.476562 51 37.46875 C 50.019531 39.484375 48.96875 41.460938 47.84375 43.402344 Z M 54.320312 8.453125 C 56.777344 9.867188 57.734375 15.574219 56.191406 23.054688 C 56.089844 23.53125 55.980469 24.019531 55.859375 24.511719 C 52.8125 23.808594 49.5 23.289062 46.035156 22.964844 C 44.019531 20.097656 41.925781 17.492188 39.824219 15.234375 C 40.375 14.707031 40.941406 14.191406 41.515625 13.691406 C 46.941406 8.984375 52.007812 7.125 54.320312 8.453125 Z M 37.589844 30.898438 C 41.214844 30.898438 44.152344 33.828125 44.152344 37.441406 C 44.152344 41.054688 41.214844 43.980469 37.589844 43.980469 C 33.96875 43.980469 31.03125 41.054688 31.03125 37.441406 C 31.03125 33.828125 33.96875 30.898438 37.589844 30.898438 Z M 37.589844 30.898438 " fill-opacity="1" fill-rule="nonzero"/></g></svg>