<svg xmlns="http://www.w3.org/2000/svg" xmlns:xlink="http://www.w3.org/1999/xlink" width="100" zoomAndPan="magnify" viewBox="0 0 75 74.999997" height="100" preserveAspectRatio="xMidYMid meet" version="1.0"><path fill="#c11f1f" d="M 16.945312 18.109375 C 11.804688 23.511719 8.789062 30.90625 9.167969 39.011719 C 9.835938 53.328125 21.351562 65.09375 35.648438 66.042969 C 39.335938 66.285156 42.882812 65.832031 46.175781 64.78125 C 47.238281 64.445312 48.382812 64.9375 48.882812 65.9375 C 49.503906 67.179688 48.886719 68.707031 47.566406 69.125 C 43.34375 70.460938 38.753906 70.976562 33.984375 70.46875 C 18.429688 68.808594 6.019531 56.113281 4.703125 40.527344 C 3.867188 30.566406 7.433594 21.441406 13.710938 14.871094 L 11.710938 12.871094 C 11.027344 12.183594 11.617188 10.921875 12.644531 10.855469 L 18.890625 10.441406 L 20.578125 10.332031 C 21.226562 10.296875 21.691406 10.777344 21.65625 11.410156 L 21.476562 14.214844 L 21.132812 19.34375 C 21.066406 20.371094 19.804688 20.960938 19.132812 20.292969 L 16.945312 18.109375 " fill-opacity="1" fill-rule="nonzero"/><path fill="#c11f1f" d="M 61.476562 60.429688 C 67.753906 53.855469 71.324219 44.734375 70.484375 34.773438 C 69.167969 19.1875 56.757812 6.488281 41.203125 4.832031 C 36.433594 4.324219 31.84375 4.839844 27.621094 6.175781 C 26.300781 6.59375 25.679688 8.121094 26.304688 9.367188 C 26.800781 10.363281 27.949219 10.855469 29.011719 10.519531 C 32.300781 9.46875 35.851562 9.015625 39.535156 9.253906 C 53.835938 10.207031 65.351562 21.972656 66.019531 36.289062 C 66.398438 44.394531 63.382812 51.789062 58.242188 57.191406 L 56.054688 55.007812 C 55.382812 54.335938 54.121094 54.929688 54.054688 55.957031 L 53.710938 61.085938 L 53.527344 63.886719 C 53.492188 64.523438 53.960938 65.003906 54.609375 64.96875 L 56.292969 64.851562 L 62.542969 64.445312 C 63.570312 64.378906 64.160156 63.113281 63.476562 62.429688 L 61.476562 60.429688 " fill-opacity="1" fill-rule="nonzero"/><path fill="#3d5a91" d="M 37.59375 50.171875 C 30.671875 50.171875 25.070312 44.574219 25.070312 37.648438 C 25.070312 30.726562 30.671875 25.128906 37.59375 25.128906 C 44.515625 25.128906 50.113281 30.726562 50.113281 37.648438 C 50.113281 44.574219 44.515625 50.171875 37.59375 50.171875 Z M 57.988281 35.898438 C 57.957031 35.453125 57.652344 35.074219 57.242188 34.90625 L 53.953125 33.585938 C 53.542969 31.9375 52.878906 30.390625 52.027344 28.953125 L 53.425781 25.683594 C 53.59375 25.277344 53.550781 24.800781 53.257812 24.457031 C 52.492188 23.566406 51.675781 22.726562 50.777344 21.984375 C 50.433594 21.691406 49.953125 21.648438 49.546875 21.816406 L 46.277344 23.21875 C 44.855469 22.351562 43.308594 21.699219 41.644531 21.292969 L 40.335938 17.992188 C 40.167969 17.582031 39.789062 17.285156 39.34375 17.242188 C 38.230469 17.140625 36.988281 17.125 35.839844 17.242188 C 35.398438 17.285156 35.019531 17.582031 34.851562 17.992188 L 33.542969 21.292969 C 31.878906 21.699219 30.332031 22.351562 28.910156 23.21875 L 25.640625 21.816406 C 25.230469 21.648438 24.75 21.691406 24.410156 21.984375 C 23.523438 22.75 22.683594 23.558594 21.929688 24.457031 C 21.636719 24.800781 21.589844 25.277344 21.757812 25.683594 L 23.160156 28.953125 C 22.304688 30.390625 21.644531 31.9375 21.234375 33.585938 L 17.945312 34.90625 C 17.535156 35.074219 17.230469 35.453125 17.199219 35.898438 C 17.125 36.46875 17.105469 37.058594 17.105469 37.648438 C 17.105469 38.242188 17.125 38.832031 17.199219 39.402344 C 17.230469 39.847656 17.535156 40.222656 17.945312 40.394531 L 21.234375 41.714844 C 21.644531 43.363281 22.304688 44.910156 23.160156 46.347656 L 21.757812 49.617188 C 21.589844 50.023438 21.636719 50.5 21.929688 50.84375 C 22.691406 51.730469 23.503906 52.570312 24.410156 53.316406 C 24.75 53.609375 25.230469 53.652344 25.640625 53.484375 L 28.910156 52.082031 C 30.332031 52.949219 31.878906 53.597656 33.542969 54.007812 L 34.851562 57.308594 C 35.019531 57.714844 35.398438 58.015625 35.839844 58.058594 C 36.957031 58.160156 38.199219 58.175781 39.34375 58.058594 C 39.789062 58.015625 40.167969 57.714844 40.335938 57.308594 L 41.644531 54.007812 C 43.308594 53.597656 44.855469 52.949219 46.277344 52.082031 L 49.546875 53.484375 C 49.953125 53.652344 50.433594 53.609375 50.777344 53.316406 C 51.675781 52.550781 52.5 51.742188 53.257812 50.84375 C 53.550781 50.5 53.59375 50.023438 53.425781 49.617188 L 52.027344 46.347656 C 52.878906 44.910156 53.542969 43.363281 53.953125 41.714844 L 57.242188 40.394531 C 57.652344 40.222656 57.957031 39.847656 57.988281 39.402344 C 58.117188 38.253906 58.117188 37.046875 57.988281 35.898438 " fill-opacity="1" fill-rule="nonzero"/><path fill="#000000" d="M 37.59375 26.265625 C 31.316406 26.265625 26.210938 31.371094 26.210938 37.648438 C 26.210938 43.929688 31.316406 49.03125 37.59375 49.03125 C 43.871094 49.03125 48.976562 43.929688 48.976562 37.648438 C 48.976562 31.371094 43.871094 26.265625 37.59375 26.265625 Z M 37.59375 51.308594 C 30.0625 51.308594 23.933594 45.183594 23.933594 37.648438 C 23.933594 30.117188 30.0625 23.992188 37.59375 23.992188 C 45.125 23.992188 51.253906 30.117188 51.253906 37.648438 C 51.253906 45.183594 45.125 51.308594 37.59375 51.308594 " fill-opacity="1" fill-rule="nonzero"/></svg>