<svg xmlns="http://www.w3.org/2000/svg" xmlns:xlink="http://www.w3.org/1999/xlink" width="100" zoomAndPan="magnify" viewBox="0 0 75 74.999997" height="100" preserveAspectRatio="xMidYMid meet" version="1.0"><defs><clipPath id="983f9fdeb0"><path d="M 1 10 L 74.316406 10 L 74.316406 66 L 1 66 Z M 1 10 " clip-rule="nonzero"/></clipPath></defs><g clip-path="url(#983f9fdeb0)"><path fill="#f06292" d="M 63.976562 42.082031 C 61.425781 42.09375 59.214844 42.707031 57.363281 43.625 C 56.6875 42.269531 56 41.078125 55.882812 40.195312 C 55.75 39.160156 55.59375 38.542969 55.757812 37.3125 C 55.917969 36.082031 56.632812 34.335938 56.621094 34.207031 C 56.613281 34.074219 56.460938 33.449219 54.992188 33.4375 C 53.519531 33.425781 52.257812 33.722656 52.113281 34.109375 C 51.964844 34.5 51.679688 35.375 51.503906 36.285156 C 51.246094 37.621094 48.566406 42.386719 47.042969 44.878906 C 46.546875 43.90625 46.125 43.046875 46.035156 42.371094 C 45.902344 41.339844 45.746094 40.71875 45.910156 39.488281 C 46.070312 38.257812 46.78125 36.515625 46.773438 36.382812 C 46.761719 36.253906 46.613281 35.625 45.140625 35.613281 C 43.671875 35.605469 42.410156 35.898438 42.261719 36.285156 C 42.117188 36.675781 41.957031 37.585938 41.65625 38.464844 C 41.355469 39.34375 37.792969 47.289062 36.859375 49.351562 C 36.382812 50.402344 35.96875 51.246094 35.675781 51.820312 C 35.675781 51.820312 35.675781 51.816406 35.675781 51.816406 C 35.675781 51.816406 35.65625 51.855469 35.625 51.921875 C 35.375 52.410156 35.226562 52.679688 35.226562 52.679688 C 35.226562 52.679688 35.230469 52.683594 35.234375 52.691406 C 35.035156 53.050781 34.820312 53.386719 34.71875 53.386719 C 34.644531 53.386719 34.496094 52.425781 34.75 51.109375 C 35.28125 48.355469 36.550781 44.054688 36.539062 43.90625 C 36.535156 43.828125 36.777344 43.082031 35.710938 42.6875 C 34.671875 42.308594 34.300781 42.941406 34.207031 42.945312 C 34.113281 42.945312 34.046875 43.167969 34.046875 43.167969 C 34.046875 43.167969 35.203125 38.332031 31.839844 38.332031 C 29.738281 38.332031 26.824219 40.636719 25.386719 42.726562 C 24.480469 43.21875 22.542969 44.28125 20.488281 45.410156 C 19.695312 45.847656 18.890625 46.289062 18.125 46.710938 C 18.074219 46.652344 18.019531 46.597656 17.96875 46.539062 C 13.886719 42.183594 6.347656 39.101562 6.667969 33.242188 C 6.785156 31.113281 7.523438 25.503906 21.15625 18.707031 C 32.324219 13.136719 41.265625 14.667969 42.8125 18.066406 C 45.015625 22.917969 38.03125 31.941406 26.433594 33.242188 C 22.015625 33.738281 19.6875 32.023438 19.109375 31.386719 C 18.5 30.710938 18.410156 30.683594 18.183594 30.808594 C 17.8125 31.015625 18.046875 31.609375 18.183594 31.960938 C 18.527344 32.863281 19.949219 34.464844 22.371094 35.261719 C 24.503906 35.960938 29.691406 36.34375 35.964844 33.914062 C 42.992188 31.195312 48.480469 23.625 46.867188 17.296875 C 45.226562 10.863281 34.570312 8.746094 24.480469 12.335938 C 18.472656 14.46875 11.972656 17.820312 7.296875 22.195312 C 1.742188 27.398438 0.855469 31.929688 1.222656 33.820312 C 2.519531 40.542969 11.773438 44.921875 15.480469 48.167969 C 15.296875 48.265625 15.125 48.363281 14.96875 48.449219 C 13.113281 49.367188 6.054688 53.066406 4.289062 56.972656 C 2.289062 61.402344 4.609375 64.578125 6.144531 65.007812 C 10.90625 66.332031 15.789062 63.949219 18.417969 60.027344 C 21.039062 56.109375 20.722656 51.007812 19.515625 48.679688 C 19.5 48.648438 19.484375 48.621094 19.46875 48.589844 C 19.949219 48.308594 20.4375 48.019531 20.921875 47.734375 C 21.867188 47.175781 22.796875 46.65625 23.601562 46.21875 C 23.152344 47.457031 22.820312 48.9375 22.648438 51.078125 C 22.449219 53.59375 23.476562 56.84375 24.824219 58.125 C 25.417969 58.6875 26.132812 58.699219 26.585938 58.699219 C 28.152344 58.699219 28.867188 57.394531 29.65625 55.851562 C 30.621094 53.957031 31.480469 51.75 31.480469 51.75 C 31.480469 51.75 30.402344 57.707031 33.332031 57.707031 C 34.402344 57.707031 35.476562 56.320312 35.953125 55.613281 C 35.957031 55.621094 35.957031 55.625 35.957031 55.625 C 35.957031 55.625 35.984375 55.578125 36.039062 55.488281 C 36.152344 55.316406 36.214844 55.210938 36.214844 55.210938 C 36.214844 55.210938 36.214844 55.199219 36.21875 55.179688 C 36.648438 54.433594 37.601562 52.730469 39.027344 49.925781 C 40.871094 46.300781 42.640625 41.761719 42.640625 41.761719 C 42.640625 41.761719 42.804688 42.871094 43.34375 44.707031 C 43.660156 45.789062 44.335938 46.980469 44.867188 48.128906 C 44.441406 48.722656 44.179688 49.0625 44.179688 49.0625 C 44.179688 49.0625 44.179688 49.070312 44.183594 49.082031 C 43.84375 49.535156 43.460938 50.027344 43.058594 50.503906 C 41.601562 52.242188 39.867188 54.222656 39.636719 54.796875 C 39.359375 55.46875 39.425781 55.964844 39.957031 56.363281 C 40.34375 56.65625 41.027344 56.703125 41.746094 56.652344 C 43.054688 56.566406 43.976562 56.238281 44.429688 56.042969 C 45.136719 55.792969 45.964844 55.398438 46.734375 54.828125 C 48.164062 53.777344 49.027344 52.273438 48.941406 50.28125 C 48.894531 49.183594 48.546875 48.09375 48.105469 47.066406 C 48.234375 46.882812 48.363281 46.691406 48.496094 46.503906 C 50.746094 43.207031 52.492188 39.585938 52.492188 39.585938 C 52.492188 39.585938 52.65625 40.695312 53.195312 42.535156 C 53.46875 43.460938 54.007812 44.476562 54.492188 45.46875 C 52.375 47.191406 51.0625 49.195312 50.605469 50.507812 C 49.765625 52.933594 50.425781 54.035156 51.664062 54.285156 C 52.222656 54.398438 53.015625 54.140625 53.613281 53.886719 C 54.351562 53.640625 55.246094 53.230469 56.078125 52.621094 C 57.503906 51.566406 58.878906 50.097656 58.796875 48.105469 C 58.757812 47.199219 58.511719 46.296875 58.179688 45.433594 C 59.972656 44.683594 62.296875 44.269531 65.257812 44.613281 C 71.605469 45.359375 72.851562 49.324219 72.613281 50.988281 C 72.375 52.648438 71.042969 53.5625 70.597656 53.835938 C 70.152344 54.113281 70.015625 54.207031 70.054688 54.414062 C 70.109375 54.710938 70.3125 54.699219 70.695312 54.636719 C 71.214844 54.546875 74.027344 53.285156 74.148438 50.21875 C 74.300781 46.324219 70.574219 42.046875 63.976562 42.082031 Z M 15.035156 58.597656 C 12.933594 60.894531 9.996094 61.761719 8.734375 61.03125 C 7.375 60.242188 7.914062 56.863281 10.492188 54.421875 C 12.066406 52.9375 14.097656 51.570312 15.445312 50.726562 C 15.75 50.542969 16.203125 50.273438 16.75 49.945312 C 16.839844 49.890625 16.890625 49.863281 16.890625 49.863281 L 16.890625 49.859375 C 16.996094 49.796875 17.105469 49.734375 17.214844 49.664062 C 18.15625 53.132812 17.246094 56.1875 15.035156 58.597656 Z M 30.359375 48.171875 C 29.628906 49.960938 28.09375 54.535156 27.160156 54.289062 C 26.359375 54.078125 25.871094 50.601562 27 47.179688 C 27.566406 45.457031 28.78125 43.398438 29.496094 42.601562 C 30.644531 41.316406 31.910156 40.894531 32.214844 41.417969 C 32.605469 42.082031 30.816406 47.050781 30.359375 48.171875 Z M 43.015625 54.21875 C 42.707031 54.382812 42.421875 54.484375 42.289062 54.40625 C 42.191406 54.347656 42.417969 54.132812 42.417969 54.132812 C 42.417969 54.132812 44 52.425781 44.625 51.652344 C 44.988281 51.199219 45.40625 50.664062 45.863281 50.066406 C 45.867188 50.125 45.871094 50.183594 45.871094 50.242188 C 45.867188 52.285156 43.894531 53.664062 43.015625 54.21875 Z M 52.765625 51.992188 C 52.535156 51.828125 52.574219 51.296875 53.335938 49.632812 C 53.636719 48.980469 54.320312 47.882812 55.503906 46.832031 C 55.640625 47.265625 55.722656 47.679688 55.722656 48.0625 C 55.707031 50.632812 53.875 51.59375 52.765625 51.992188 Z M 52.765625 51.992188 " fill-opacity="1" fill-rule="nonzero"/></g></svg>