<svg xmlns="http://www.w3.org/2000/svg" xmlns:xlink="http://www.w3.org/1999/xlink" width="100" zoomAndPan="magnify" viewBox="0 0 75 74.999997" height="100" preserveAspectRatio="xMidYMid meet" version="1.0"><defs><clipPath id="2e05de1073"><path d="M 1.988281 8 L 44 8 L 44 54 L 1.988281 54 Z M 1.988281 8 " clip-rule="nonzero"/></clipPath><clipPath id="f03b3242f4"><path d="M 1.988281 1.988281 L 44 1.988281 L 44 15 L 1.988281 15 Z M 1.988281 1.988281 " clip-rule="nonzero"/></clipPath><clipPath id="78556568b7"><path d="M 1.988281 17 L 44 17 L 44 30 L 1.988281 30 Z M 1.988281 17 " clip-rule="nonzero"/></clipPath><clipPath id="8bbc313928"><path d="M 1.988281 32 L 34 32 L 34 44 L 1.988281 44 Z M 1.988281 32 " clip-rule="nonzero"/></clipPath><clipPath id="097a0ee08c"><path d="M 29 29 L 73.238281 29 L 73.238281 73.238281 L 29 73.238281 Z M 29 29 " clip-rule="nonzero"/></clipPath></defs><g clip-path="url(#2e05de1073)"><path fill="#4184a9" d="M 1.988281 8.128906 L 1.988281 47.441406 C 1.988281 50.832031 11.335938 53.582031 22.871094 53.582031 C 25.042969 53.582031 27.148438 53.480469 29.125 53.3125 L 43.753906 30.28125 L 43.753906 8.128906 L 1.988281 8.128906 " fill-opacity="1" fill-rule="nonzero"/></g><g clip-path="url(#f03b3242f4)"><path fill="#35718a" d="M 43.753906 8.128906 C 43.753906 11.523438 34.40625 14.273438 22.871094 14.273438 C 11.339844 14.273438 1.988281 11.523438 1.988281 8.128906 C 1.988281 4.738281 11.339844 1.988281 22.871094 1.988281 C 34.40625 1.988281 43.753906 4.738281 43.753906 8.128906 " fill-opacity="1" fill-rule="nonzero"/></g><g clip-path="url(#78556568b7)"><path fill="#ffde59" d="M 1.988281 22.871094 C 1.988281 26.265625 11.339844 29.011719 22.871094 29.011719 C 34.40625 29.011719 43.753906 26.265625 43.753906 22.871094 L 43.753906 17.957031 C 43.753906 21.351562 34.40625 24.097656 22.871094 24.097656 C 11.339844 24.097656 1.988281 21.351562 1.988281 17.957031 L 1.988281 22.871094 " fill-opacity="1" fill-rule="nonzero"/></g><g clip-path="url(#8bbc313928)"><path fill="#ffde59" d="M 30.429688 43.347656 C 28.078125 43.605469 25.535156 43.753906 22.871094 43.753906 C 11.335938 43.753906 1.988281 41.003906 1.988281 37.613281 L 1.988281 32.699219 C 1.988281 36.089844 11.335938 38.839844 22.871094 38.839844 C 26.675781 38.839844 30.257812 38.546875 33.328125 38.019531 L 30.429688 43.347656 " fill-opacity="1" fill-rule="nonzero"/></g><g clip-path="url(#097a0ee08c)"><path fill="#35718a" d="M 73.238281 51.125 C 73.238281 63.339844 63.339844 73.238281 51.125 73.238281 C 38.914062 73.238281 29.011719 63.339844 29.011719 51.125 C 29.011719 38.914062 38.914062 29.011719 51.125 29.011719 C 63.339844 29.011719 73.238281 38.914062 73.238281 51.125 " fill-opacity="1" fill-rule="nonzero"/></g><path fill="#ffffff" d="M 40.070312 44.984375 C 41.421875 44.984375 42.527344 46.085938 42.527344 47.441406 C 42.527344 48.117188 43.078125 48.667969 43.753906 48.667969 C 44.429688 48.667969 44.984375 48.117188 44.984375 47.441406 C 44.984375 44.730469 42.78125 42.527344 40.070312 42.527344 C 37.359375 42.527344 35.15625 44.730469 35.15625 47.441406 C 35.15625 50.152344 37.359375 52.355469 40.070312 52.355469 C 41.421875 52.355469 42.527344 53.457031 42.527344 54.8125 C 42.527344 56.164062 41.421875 57.269531 40.070312 57.269531 C 38.714844 57.269531 37.613281 56.164062 37.613281 54.8125 C 37.613281 54.132812 37.0625 53.582031 36.382812 53.582031 C 35.707031 53.582031 35.15625 54.132812 35.15625 54.8125 C 35.15625 57.523438 37.359375 59.722656 40.070312 59.722656 C 42.78125 59.722656 44.984375 57.523438 44.984375 54.8125 C 44.984375 52.097656 42.78125 49.898438 40.070312 49.898438 C 38.714844 49.898438 37.613281 48.792969 37.613281 47.441406 C 37.613281 46.085938 38.714844 44.984375 40.070312 44.984375 " fill-opacity="1" fill-rule="nonzero"/><path fill="#ffffff" d="M 54.605469 54.128906 C 54.230469 53.5625 53.46875 53.414062 52.902344 53.789062 C 52.335938 54.164062 52.179688 54.925781 52.558594 55.492188 L 53.535156 56.949219 C 53.179688 57.148438 52.78125 57.269531 52.355469 57.269531 C 51 57.269531 49.898438 56.164062 49.898438 54.8125 L 49.898438 47.441406 C 49.898438 46.085938 51 44.984375 52.355469 44.984375 C 53.707031 44.984375 54.8125 46.085938 54.8125 47.441406 L 54.8125 54.441406 Z M 52.355469 42.527344 C 49.644531 42.527344 47.441406 44.730469 47.441406 47.441406 L 47.441406 54.8125 C 47.441406 57.523438 49.644531 59.722656 52.355469 59.722656 C 53.289062 59.722656 54.152344 59.449219 54.898438 58.996094 L 55.015625 59.175781 C 55.253906 59.53125 55.640625 59.722656 56.039062 59.722656 C 56.273438 59.722656 56.507812 59.65625 56.71875 59.519531 C 57.285156 59.144531 57.441406 58.382812 57.0625 57.816406 L 56.632812 57.175781 C 57.023438 56.472656 57.269531 55.675781 57.269531 54.8125 L 57.269531 47.441406 C 57.269531 44.730469 55.066406 42.527344 52.355469 42.527344 " fill-opacity="1" fill-rule="nonzero"/><path fill="#ffffff" d="M 65.867188 57.269531 L 62.179688 57.269531 L 62.179688 43.753906 C 62.179688 43.078125 61.628906 42.527344 60.953125 42.527344 C 60.277344 42.527344 59.722656 43.078125 59.722656 43.753906 L 59.722656 58.496094 C 59.722656 59.171875 60.277344 59.722656 60.953125 59.722656 L 65.867188 59.722656 C 66.542969 59.722656 67.09375 59.171875 67.09375 58.496094 C 67.09375 57.820312 66.542969 57.269531 65.867188 57.269531 " fill-opacity="1" fill-rule="nonzero"/></svg>