<svg version="1.1" id="Layer_1" xmlns="http://www.w3.org/2000/svg" xmlns:xlink="http://www.w3.org/1999/xlink" x="0px" y="0px"
	 width="100%" viewBox="0 0 512 512" enable-background="new 0 0 512 512" xml:space="preserve">
<path fill="#FF5034" opacity="1.000000" stroke="none"
	d="
M0.999998,414.000000
	C1.000000,310.645233 1.000000,207.290466 1.356444,103.756226
	C2.114548,103.067505 2.765050,102.608696 2.880037,102.041351
	C4.298645,95.041901 5.243154,87.921471 7.071928,81.034576
	C13.219673,57.883095 25.450773,38.469799 44.752659,24.160637
	C60.820213,12.249202 79.271637,5.703578 99.068398,2.917137
	C99.787964,2.815857 100.359489,1.662858 101.000000,1.000001
	C204.688095,1.000000 308.376190,1.000000 412.219910,1.345542
	C418.322052,3.129113 424.276428,4.535532 430.213715,6.010742
	C453.806976,11.872864 473.251801,24.626842 488.445587,43.242374
	C501.343567,59.045067 508.288818,77.783386 511.082062,98.020721
	C511.183350,98.754738 512.336853,99.343536 513.000000,100.000008
	C513.000000,205.021439 513.000000,310.042877 512.654541,415.219849
	C511.876648,416.215424 511.168640,417.018921 511.051575,417.900848
	C507.299683,446.169983 493.586212,468.924988 471.667816,486.543701
	C454.612640,500.253204 434.687500,508.011414 412.974701,511.081696
	C412.240723,511.185455 411.654877,512.336914 411.000000,513.000000
	C307.978577,513.000000 204.957138,513.000000 101.788284,512.658691
	C95.701096,510.876740 89.739609,509.519562 83.825302,507.981018
	C57.965527,501.253845 37.128845,487.091980 21.733818,465.250397
	C11.330685,450.491028 5.472973,433.874054 2.919371,416.037384
	C2.811246,415.282135 1.663455,414.675751 0.999998,414.000000
M138.651428,110.874390
	C138.803696,111.132706 138.996445,111.356117 139.526947,112.176628
	C170.752670,157.247726 204.830551,200.067062 241.286865,241.158356
	C188.186722,207.876328 138.924881,169.587357 90.898262,129.493713
	C143.737213,200.622940 200.030869,268.464844 270.679413,323.725006
	C249.516907,336.429657 227.238831,342.990356 203.548599,344.972900
	C168.942566,347.869019 135.739777,341.616455 104.378540,327.287323
	C87.069519,319.378754 70.863701,309.055725 53.884155,299.325897
	C53.436016,299.298187 52.987873,299.270447 52.539734,299.242706
	C52.788033,299.715210 53.036331,300.187683 53.557831,301.286163
	C99.064941,367.653168 160.242722,409.365784 241.226730,418.430817
	C277.070831,422.443024 311.580444,416.291901 343.321106,397.892670
	C347.886932,395.246002 352.912079,393.229218 357.937927,391.565063
	C389.196350,381.214844 415.402069,389.434204 430.930420,417.835052
	C431.503326,418.882843 432.498993,419.699463 433.971863,421.404083
	C435.233612,418.684448 436.620728,416.879761 436.872589,414.928558
	C437.615326,409.174622 438.495911,403.340515 438.278290,397.577209
	C437.197479,368.954742 426.389282,343.907318 409.165741,321.440735
	C406.880890,318.460327 406.394653,315.941254 407.301178,312.411102
	C413.883331,286.778992 414.144257,260.912903 408.362396,235.200089
	C392.915497,166.505539 352.717438,115.427254 294.728821,77.248772
	C293.781525,76.625084 292.614075,76.335693 290.933655,75.632736
	C328.919464,132.204865 347.804688,191.350906 325.328522,259.036224
	C320.222839,256.037415 315.832367,253.722198 311.712067,250.998276
	C265.623291,220.528885 222.434692,186.324387 181.472244,149.298325
	C167.517517,136.684601 153.956024,123.635857 140.045868,110.303131
	C139.758408,110.140984 139.470963,109.978844 138.943008,109.282204
	C138.676315,109.283493 138.409607,109.284782 138.142914,109.286064
	C138.254761,109.679337 138.366608,110.072609 138.651428,110.874390
z"/>
<path fill="#00000000" opacity="1.000000" stroke="none"
	d="
M411.468658,513.000000
	C411.654877,512.336914 412.240723,511.185455 412.974701,511.081696
	C434.687500,508.011414 454.612640,500.253204 471.667816,486.543701
	C493.586212,468.924988 507.299683,446.169983 511.051575,417.900848
	C511.168640,417.018921 511.876648,416.215424 512.654541,415.687683
	C513.000000,448.262115 513.000000,480.524200 513.000000,513.000000
	C479.312744,513.000000 445.625031,513.000000 411.468658,513.000000
z"/>
<path fill="#00000000" opacity="1.000000" stroke="none"
	d="
M100.531342,1.000001
	C100.359489,1.662858 99.787964,2.815857 99.068398,2.917137
	C79.271637,5.703578 60.820213,12.249202 44.752659,24.160637
	C25.450773,38.469799 13.219673,57.883095 7.071928,81.034576
	C5.243154,87.921471 4.298645,95.041901 2.880037,102.041351
	C2.765050,102.608696 2.114548,103.067505 1.356444,103.288376
	C1.000000,69.073784 1.000000,35.147572 1.000000,1.000000
	C34.020565,1.000000 67.041626,1.000000 100.531342,1.000001
z"/>
<path fill="#00000000" opacity="1.000000" stroke="none"
	d="
M0.999998,414.468658
	C1.663455,414.675751 2.811246,415.282135 2.919371,416.037384
	C5.472973,433.874054 11.330685,450.491028 21.733818,465.250397
	C37.128845,487.091980 57.965527,501.253845 83.825302,507.981018
	C89.739609,509.519562 95.701096,510.876740 101.320435,512.658691
	C67.740105,513.000000 34.480202,513.000000 1.000000,513.000000
	C1.000000,480.312775 1.000000,447.625031 0.999998,414.468658
z"/>
<path fill="#00000000" opacity="1.000000" stroke="none"
	d="
M513.000000,99.531349
	C512.336853,99.343536 511.183350,98.754738 511.082062,98.020721
	C508.288818,77.783386 501.343567,59.045067 488.445587,43.242374
	C473.251801,24.626842 453.806976,11.872864 430.213715,6.010742
	C424.276428,4.535532 418.322052,3.129113 412.687775,1.345542
	C446.259888,1.000000 479.519775,1.000000 513.000000,1.000000
	C513.000000,33.687229 513.000000,66.374954 513.000000,99.531349
z"/>
<path fill="#FFFEFE" opacity="1.000000" stroke="none"
	d="
M140.214844,110.785889
	C153.956024,123.635857 167.517517,136.684601 181.472244,149.298325
	C222.434692,186.324387 265.623291,220.528885 311.712067,250.998276
	C315.832367,253.722198 320.222839,256.037415 325.328522,259.036224
	C347.804688,191.350906 328.919464,132.204865 290.933655,75.632736
	C292.614075,76.335693 293.781525,76.625084 294.728821,77.248772
	C352.717438,115.427254 392.915497,166.505539 408.362396,235.200089
	C414.144257,260.912903 413.883331,286.778992 407.301178,312.411102
	C406.394653,315.941254 406.880890,318.460327 409.165741,321.440735
	C426.389282,343.907318 437.197479,368.954742 438.278290,397.577209
	C438.495911,403.340515 437.615326,409.174622 436.872589,414.928558
	C436.620728,416.879761 435.233612,418.684448 433.971863,421.404083
	C432.498993,419.699463 431.503326,418.882843 430.930420,417.835052
	C415.402069,389.434204 389.196350,381.214844 357.937927,391.565063
	C352.912079,393.229218 347.886932,395.246002 343.321106,397.892670
	C311.580444,416.291901 277.070831,422.443024 241.226730,418.430817
	C160.242722,409.365784 99.064941,367.653168 53.641319,300.764587
	C53.870060,300.102356 54.015308,299.961731 54.160553,299.821136
	C70.863701,309.055725 87.069519,319.378754 104.378540,327.287323
	C135.739777,341.616455 168.942566,347.869019 203.548599,344.972900
	C227.238831,342.990356 249.516907,336.429657 270.679413,323.725006
	C200.030869,268.464844 143.737213,200.622940 90.898262,129.493713
	C138.924881,169.587357 188.186722,207.876328 241.286865,241.158356
	C204.830551,200.067062 170.752670,157.247726 139.629639,111.677277
	C139.893173,111.047241 140.054016,110.916565 140.214844,110.785889
M242.155975,241.071777
	C242.047012,241.406570 241.938049,241.741348 241.829086,242.076141
	C242.071930,242.138977 242.314758,242.201797 242.557602,242.264633
	C242.617767,241.983337 242.677933,241.702026 242.155975,241.071777
z"/>
<path fill="#FFFEFE" opacity="1.000000" stroke="none"
	d="
M53.504719,300.451599
	C53.036331,300.187683 52.788033,299.715210 52.539734,299.242706
	C52.987873,299.270447 53.436016,299.298187 54.022354,299.573517
	C54.015308,299.961731 53.870060,300.102356 53.504719,300.451599
z"/>
<path fill="#FFFEFE" opacity="1.000000" stroke="none"
	d="
M138.478470,110.465881
	C138.366608,110.072609 138.254761,109.679337 138.142914,109.286072
	C138.409607,109.284782 138.676315,109.283493 138.886932,109.711670
	C138.830841,110.141136 138.478470,110.465881 138.478470,110.465881
z"/>
<path fill="#FFFEFE" opacity="1.000000" stroke="none"
	d="
M139.007172,109.978920
	C139.470963,109.978844 139.758408,110.140984 140.130356,110.544510
	C140.054016,110.916565 139.893173,111.047241 139.480988,111.361267
	C138.996445,111.356117 138.803696,111.132706 138.564941,110.670135
	C138.478470,110.465881 138.830841,110.141136 139.007172,109.978920
z"/>
<path fill="#FF5034" opacity="1.000000" stroke="none"
	d="
M242.447037,241.246246
	C242.677933,241.702026 242.617767,241.983337 242.557602,242.264633
	C242.314758,242.201797 242.071930,242.138977 241.829086,242.076141
	C241.938049,241.741348 242.047012,241.406570 242.447037,241.246246
z"/>
</svg>
