<svg xmlns="http://www.w3.org/2000/svg" xmlns:xlink="http://www.w3.org/1999/xlink" width="100" zoomAndPan="magnify" viewBox="0 0 75 74.999997" height="100" preserveAspectRatio="xMidYMid meet" version="1.0"><defs><clipPath id="0611ab1f89"><path d="M 1.613281 1.613281 L 73.613281 1.613281 L 73.613281 73.613281 L 1.613281 73.613281 Z M 1.613281 1.613281 " clip-rule="nonzero"/></clipPath><clipPath id="42cae943ac"><path d="M 1.613281 1.613281 L 73.613281 1.613281 L 73.613281 20 L 1.613281 20 Z M 1.613281 1.613281 " clip-rule="nonzero"/></clipPath><clipPath id="538be01c65"><path d="M 1.613281 1.613281 L 38 1.613281 L 38 73.613281 L 1.613281 73.613281 Z M 1.613281 1.613281 " clip-rule="nonzero"/></clipPath><clipPath id="92dc81281e"><path d="M 1.613281 1.613281 L 38 1.613281 L 38 20 L 1.613281 20 Z M 1.613281 1.613281 " clip-rule="nonzero"/></clipPath></defs><g clip-path="url(#0611ab1f89)"><path fill="#5e94ff" d="M 10.65625 1.445312 C 5.566406 1.445312 1.445312 5.566406 1.445312 10.65625 L 1.445312 64.234375 C 1.445312 69.320312 5.566406 73.445312 10.65625 73.445312 L 64.234375 73.445312 C 69.320312 73.445312 73.445312 69.320312 73.445312 64.234375 L 73.445312 10.65625 C 73.445312 5.566406 69.320312 1.445312 64.234375 1.445312 Z M 10.65625 1.445312 " fill-opacity="1" fill-rule="nonzero"/></g><g clip-path="url(#42cae943ac)"><path fill="#4dc4ff" d="M 10.65625 1.445312 C 5.566406 1.445312 1.445312 5.566406 1.445312 10.65625 L 1.445312 17.351562 C 1.445312 18.738281 2.570312 19.863281 3.957031 19.863281 L 70.933594 19.863281 C 72.320312 19.863281 73.445312 18.738281 73.445312 17.351562 L 73.445312 10.65625 C 73.445312 5.566406 69.320312 1.445312 64.234375 1.445312 Z M 10.65625 1.445312 " fill-opacity="1" fill-rule="nonzero"/></g><g clip-path="url(#538be01c65)"><path fill="#5485e5" d="M 37.445312 1.445312 L 37.445312 73.445312 L 10.65625 73.445312 C 5.566406 73.445312 1.445312 69.320312 1.445312 64.234375 L 1.445312 10.65625 C 1.445312 5.566406 5.566406 1.445312 10.65625 1.445312 Z M 37.445312 1.445312 " fill-opacity="1" fill-rule="evenodd"/></g><g clip-path="url(#92dc81281e)"><path fill="#45b0e5" d="M 37.445312 1.445312 L 37.445312 19.863281 L 3.957031 19.863281 C 2.570312 19.863281 1.445312 18.738281 1.445312 17.351562 L 1.445312 10.65625 C 1.445312 5.566406 5.566406 1.445312 10.65625 1.445312 Z M 37.445312 1.445312 " fill-opacity="1" fill-rule="evenodd"/></g><path fill="#eceff1" d="M 39.957031 27.398438 C 39.957031 26.011719 41.082031 24.886719 42.46875 24.886719 L 60.886719 24.886719 C 62.273438 24.886719 63.398438 26.011719 63.398438 27.398438 C 63.398438 28.785156 62.273438 29.910156 60.886719 29.910156 L 44.980469 29.910156 L 44.980469 41.632812 L 60.886719 41.632812 C 62.273438 41.632812 63.398438 42.753906 63.398438 44.144531 L 63.398438 60.886719 C 63.398438 62.273438 62.273438 63.398438 60.886719 63.398438 L 42.46875 63.398438 C 41.082031 63.398438 39.957031 62.273438 39.957031 60.886719 C 39.957031 59.5 41.082031 58.375 42.46875 58.375 L 58.375 58.375 L 58.375 46.65625 L 42.46875 46.65625 C 41.082031 46.65625 39.957031 45.53125 39.957031 44.144531 Z M 39.957031 27.398438 " fill-opacity="1" fill-rule="evenodd"/><path fill="#cfd8dc" d="M 8.144531 27.398438 C 8.144531 26.011719 9.265625 24.886719 10.65625 24.886719 L 34.097656 24.886719 C 35.484375 24.886719 36.609375 26.011719 36.609375 27.398438 C 36.609375 28.785156 35.484375 29.910156 34.097656 29.910156 L 24.886719 29.910156 L 24.886719 60.886719 C 24.886719 62.273438 23.761719 63.398438 22.375 63.398438 C 20.988281 63.398438 19.863281 62.273438 19.863281 60.886719 L 19.863281 29.910156 L 10.65625 29.910156 C 9.265625 29.910156 8.144531 28.785156 8.144531 27.398438 Z M 8.144531 27.398438 " fill-opacity="1" fill-rule="evenodd"/></svg>