<svg xmlns="http://www.w3.org/2000/svg" xmlns:xlink="http://www.w3.org/1999/xlink" width="100" zoomAndPan="magnify" viewBox="0 0 75 74.999997" height="100" preserveAspectRatio="xMidYMid meet" version="1.0"><path fill="#3d5a91" d="M 18.351562 53.585938 C 18.015625 53.585938 17.675781 53.433594 17.453125 53.140625 C 10.398438 43.804688 11.332031 30.515625 19.609375 22.238281 C 28.8125 13.035156 43.789062 13.035156 52.992188 22.238281 C 53.433594 22.675781 53.433594 23.394531 52.992188 23.832031 C 52.554688 24.273438 51.835938 24.273438 51.398438 23.832031 C 43.074219 15.515625 29.539062 15.507812 21.210938 23.832031 C 13.726562 31.316406 12.886719 43.335938 19.261719 51.777344 C 19.640625 52.277344 19.539062 52.984375 19.039062 53.355469 C 18.832031 53.507812 18.59375 53.585938 18.351562 53.585938 Z M 18.351562 53.585938 " fill-opacity="1" fill-rule="nonzero"/><path fill="#3d5a91" d="M 34.316406 62.4375 C 34.285156 62.4375 34.246094 62.4375 34.214844 62.429688 C 29.523438 62.019531 25.121094 60.238281 21.476562 57.292969 C 20.988281 56.902344 20.914062 56.191406 21.304688 55.707031 C 21.699219 55.222656 22.40625 55.144531 22.894531 55.535156 C 26.183594 58.195312 30.167969 59.808594 34.410156 60.175781 C 35.035156 60.230469 35.488281 60.777344 35.433594 61.402344 C 35.386719 61.988281 34.894531 62.4375 34.316406 62.4375 Z M 34.316406 62.4375 " fill-opacity="1" fill-rule="nonzero"/><path fill="#3d5a91" d="M 37.570312 62.488281 C 36.976562 62.488281 36.476562 62.027344 36.445312 61.425781 C 36.40625 60.800781 36.882812 60.269531 37.507812 60.230469 C 42.757812 59.9375 47.691406 57.734375 51.398438 54.027344 C 51.835938 53.585938 52.554688 53.585938 52.992188 54.027344 C 53.433594 54.464844 53.433594 55.183594 52.992188 55.621094 C 48.894531 59.722656 43.433594 62.164062 37.632812 62.488281 C 37.617188 62.480469 37.59375 62.488281 37.570312 62.488281 Z M 37.570312 62.488281 " fill-opacity="1" fill-rule="nonzero"/><path fill="#3d5a91" d="M 53.578125 28.296875 C 51.621094 28.296875 50.027344 26.699219 50.027344 24.742188 C 50.027344 22.785156 51.621094 21.191406 53.578125 21.191406 C 55.535156 21.191406 57.132812 22.785156 57.132812 24.742188 C 57.132812 26.699219 55.535156 28.296875 53.578125 28.296875 Z M 53.578125 23.457031 C 52.871094 23.457031 52.292969 24.035156 52.292969 24.742188 C 52.292969 25.453125 52.871094 26.03125 53.578125 26.03125 C 54.289062 26.03125 54.867188 25.453125 54.867188 24.742188 C 54.875 24.035156 54.296875 23.457031 53.578125 23.457031 Z M 53.578125 23.457031 " fill-opacity="1" fill-rule="nonzero"/><path fill="#3d5a91" d="M 53.578125 56.679688 C 51.621094 56.679688 50.027344 55.082031 50.027344 53.125 C 50.027344 51.167969 51.621094 49.570312 53.578125 49.570312 C 55.535156 49.570312 57.132812 51.167969 57.132812 53.125 C 57.132812 55.082031 55.535156 56.679688 53.578125 56.679688 Z M 53.578125 51.835938 C 52.871094 51.835938 52.292969 52.414062 52.292969 53.125 C 52.292969 53.832031 52.871094 54.410156 53.578125 54.410156 C 54.289062 54.410156 54.867188 53.832031 54.867188 53.125 C 54.875 52.414062 54.296875 51.835938 53.578125 51.835938 Z M 53.578125 51.835938 " fill-opacity="1" fill-rule="nonzero"/><path fill="#c11f1f" d="M 36.304688 56.277344 C 26.738281 56.277344 18.953125 48.492188 18.953125 38.925781 C 18.953125 29.359375 26.738281 21.574219 36.304688 21.574219 C 36.929688 21.574219 37.4375 22.082031 37.4375 22.707031 C 37.4375 23.332031 36.929688 23.839844 36.304688 23.839844 C 27.980469 23.839844 21.210938 30.609375 21.210938 38.933594 C 21.210938 47.257812 27.980469 54.027344 36.304688 54.027344 C 44.628906 54.027344 51.398438 47.25 51.398438 38.925781 C 51.398438 38.300781 51.90625 37.792969 52.53125 37.792969 C 53.15625 37.792969 53.664062 38.300781 53.664062 38.925781 C 53.65625 48.492188 45.871094 56.277344 36.304688 56.277344 Z M 36.304688 56.277344 " fill-opacity="1" fill-rule="nonzero"/><path fill="#c11f1f" d="M 52.523438 40.058594 C 50.566406 40.058594 48.96875 38.464844 48.96875 36.503906 C 48.96875 34.546875 50.566406 32.953125 52.523438 32.953125 C 54.480469 32.953125 56.078125 34.546875 56.078125 36.503906 C 56.078125 38.464844 54.480469 40.058594 52.523438 40.058594 Z M 52.523438 35.21875 C 51.8125 35.21875 51.234375 35.796875 51.234375 36.511719 C 51.234375 37.222656 51.8125 37.800781 52.523438 37.800781 C 53.230469 37.800781 53.808594 37.222656 53.808594 36.511719 C 53.816406 35.796875 53.238281 35.21875 52.523438 35.21875 Z M 52.523438 35.21875 " fill-opacity="1" fill-rule="nonzero"/><path fill="#053768" d="M 2.898438 50.449219 C 2.414062 50.449219 1.972656 50.140625 1.820312 49.65625 C 0.738281 46.1875 0.191406 42.578125 0.191406 38.925781 C 0.191406 19.015625 16.386719 2.820312 36.304688 2.820312 C 36.929688 2.820312 37.4375 3.328125 37.4375 3.953125 C 37.4375 4.578125 36.929688 5.085938 36.304688 5.085938 C 17.644531 5.085938 2.457031 20.273438 2.457031 38.933594 C 2.457031 42.363281 2.976562 45.738281 3.984375 48.984375 C 4.171875 49.578125 3.839844 50.210938 3.246094 50.402344 C 3.121094 50.425781 3.007812 50.449219 2.898438 50.449219 Z M 2.898438 50.449219 " fill-opacity="1" fill-rule="nonzero"/><path fill="#053768" d="M 22.699219 72.277344 C 22.554688 72.277344 22.40625 72.25 22.261719 72.1875 C 13.652344 68.546875 6.636719 61.511719 3.007812 52.894531 C 2.765625 52.316406 3.035156 51.652344 3.605469 51.414062 C 4.179688 51.167969 4.839844 51.445312 5.085938 52.015625 C 8.488281 60.09375 15.070312 66.691406 23.140625 70.105469 C 23.71875 70.351562 23.980469 71.015625 23.742188 71.585938 C 23.554688 72.023438 23.140625 72.277344 22.699219 72.277344 Z M 22.699219 72.277344 " fill-opacity="1" fill-rule="nonzero"/><path fill="#053768" d="M 36.304688 75.039062 C 33.675781 75.039062 31.054688 74.753906 28.511719 74.191406 C 27.902344 74.058594 27.519531 73.449219 27.65625 72.839844 C 27.789062 72.234375 28.398438 71.847656 29.003906 71.984375 C 32.914062 72.847656 37.039062 73.011719 41 72.457031 C 41.625 72.363281 42.1875 72.804688 42.269531 73.417969 C 42.355469 74.035156 41.925781 74.605469 41.308594 74.691406 C 39.660156 74.921875 37.96875 75.039062 36.304688 75.039062 Z M 36.304688 75.039062 " fill-opacity="1" fill-rule="nonzero"/><path fill="#053768" d="M 46.273438 73.589844 C 45.785156 73.589844 45.339844 73.273438 45.191406 72.78125 C 45.015625 72.179688 45.355469 71.554688 45.957031 71.378906 C 60.207031 67.128906 70.160156 53.789062 70.160156 38.925781 C 70.160156 38.300781 70.667969 37.792969 71.292969 37.792969 C 71.917969 37.792969 72.425781 38.300781 72.425781 38.925781 C 72.425781 54.78125 61.8125 69.011719 46.609375 73.542969 C 46.488281 73.574219 46.378906 73.589844 46.273438 73.589844 Z M 46.273438 73.589844 " fill-opacity="1" fill-rule="nonzero"/><path fill="#053768" d="M 38.726562 7.097656 C 36.769531 7.097656 35.171875 5.503906 35.171875 3.546875 C 35.171875 1.585938 36.769531 0 38.726562 0 C 40.683594 0 42.277344 1.59375 42.277344 3.554688 C 42.277344 5.511719 40.683594 7.097656 38.726562 7.097656 Z M 38.726562 2.257812 C 38.015625 2.257812 37.4375 2.835938 37.4375 3.546875 C 37.4375 4.253906 38.015625 4.832031 38.726562 4.832031 C 39.433594 4.832031 40.019531 4.253906 40.019531 3.546875 C 40.019531 2.835938 39.433594 2.257812 38.726562 2.257812 Z M 38.726562 2.257812 " fill-opacity="1" fill-rule="nonzero"/><path fill="#053768" d="M 71.285156 40.058594 C 69.328125 40.058594 67.730469 38.464844 67.730469 36.503906 C 67.730469 34.546875 69.328125 32.953125 71.285156 32.953125 C 73.242188 32.953125 74.839844 34.546875 74.839844 36.503906 C 74.832031 38.464844 73.234375 40.058594 71.285156 40.058594 Z M 71.285156 35.21875 C 70.574219 35.21875 69.996094 35.796875 69.996094 36.511719 C 69.996094 37.222656 70.574219 37.800781 71.285156 37.800781 C 71.992188 37.800781 72.570312 37.222656 72.570312 36.511719 C 72.570312 35.796875 71.992188 35.21875 71.285156 35.21875 Z M 71.285156 35.21875 " fill-opacity="1" fill-rule="nonzero"/><path fill="#c11f1f" d="M 36.304688 68.789062 C 19.839844 68.789062 6.453125 55.390625 6.453125 38.933594 C 6.453125 38.308594 6.960938 37.800781 7.585938 37.800781 C 8.210938 37.800781 8.71875 38.308594 8.71875 38.933594 C 8.71875 54.148438 21.097656 66.527344 36.3125 66.527344 C 48.398438 66.527344 58.96875 58.78125 62.628906 47.257812 C 62.8125 46.664062 63.453125 46.332031 64.046875 46.527344 C 64.640625 46.710938 64.972656 47.351562 64.777344 47.945312 C 60.816406 60.410156 49.371094 68.789062 36.304688 68.789062 Z M 36.304688 68.789062 " fill-opacity="1" fill-rule="nonzero"/><path fill="#c11f1f" d="M 64.742188 44.144531 C 64.6875 44.144531 64.632812 44.136719 64.578125 44.128906 C 63.960938 44.042969 63.53125 43.464844 63.621094 42.847656 C 63.808594 41.5625 63.898438 40.238281 63.898438 38.917969 C 63.898438 23.703125 51.519531 11.324219 36.304688 11.324219 C 35.679688 11.324219 35.171875 10.816406 35.171875 10.191406 C 35.171875 9.566406 35.679688 9.058594 36.304688 9.058594 C 52.769531 9.058594 66.160156 22.453125 66.160156 38.917969 C 66.160156 40.335938 66.058594 41.769531 65.859375 43.164062 C 65.773438 43.734375 65.296875 44.144531 64.742188 44.144531 Z M 64.742188 44.144531 " fill-opacity="1" fill-rule="nonzero"/><path fill="#c11f1f" d="M 34.316406 13.75 C 32.359375 13.75 30.761719 12.15625 30.761719 10.199219 C 30.761719 8.238281 32.359375 6.644531 34.316406 6.644531 C 36.273438 6.644531 37.871094 8.238281 37.871094 10.199219 C 37.863281 12.15625 36.273438 13.75 34.316406 13.75 Z M 34.316406 8.910156 C 33.605469 8.910156 33.023438 9.488281 33.023438 10.199219 C 33.023438 10.90625 33.601562 11.492188 34.316406 11.492188 C 35.027344 11.492188 35.605469 10.914062 35.605469 10.199219 C 35.605469 9.488281 35.027344 8.910156 34.316406 8.910156 Z M 34.316406 8.910156 " fill-opacity="1" fill-rule="nonzero"/><path fill="#c11f1f" d="M 7.578125 40.058594 C 5.621094 40.058594 4.023438 38.464844 4.023438 36.503906 C 4.023438 34.546875 5.621094 32.953125 7.578125 32.953125 C 9.535156 32.953125 11.128906 34.546875 11.128906 36.503906 C 11.121094 38.464844 9.535156 40.058594 7.578125 40.058594 Z M 7.578125 35.21875 C 6.867188 35.21875 6.289062 35.796875 6.289062 36.511719 C 6.289062 37.222656 6.867188 37.800781 7.578125 37.800781 C 8.285156 37.800781 8.863281 37.222656 8.863281 36.511719 C 8.863281 35.796875 8.285156 35.21875 7.578125 35.21875 Z M 7.578125 35.21875 " fill-opacity="1" fill-rule="nonzero"/><path fill="#053768" d="M 36.304688 50.027344 C 30.183594 50.027344 25.207031 45.046875 25.207031 38.925781 C 25.207031 38.300781 25.714844 37.792969 26.339844 37.792969 C 26.964844 37.792969 27.472656 38.300781 27.472656 38.925781 C 27.472656 43.796875 31.441406 47.765625 36.3125 47.765625 C 37.707031 47.765625 39.042969 47.453125 40.28125 46.828125 C 40.835938 46.542969 41.515625 46.765625 41.800781 47.328125 C 42.078125 47.882812 41.855469 48.5625 41.300781 48.847656 C 39.726562 49.632812 38.054688 50.027344 36.304688 50.027344 Z M 36.304688 50.027344 " fill-opacity="1" fill-rule="nonzero"/><path fill="#053768" d="M 43.945312 46.449219 C 43.691406 46.449219 43.425781 46.363281 43.21875 46.1875 C 42.742188 45.785156 42.679688 45.078125 43.082031 44.597656 C 44.40625 43.011719 45.140625 41 45.140625 38.933594 C 45.140625 34.0625 41.167969 30.09375 36.296875 30.09375 C 35.671875 30.09375 35.164062 29.582031 35.164062 28.960938 C 35.164062 28.335938 35.671875 27.828125 36.296875 27.828125 C 42.417969 27.828125 47.398438 32.804688 47.398438 38.925781 C 47.398438 41.523438 46.480469 44.050781 44.808594 46.046875 C 44.589844 46.308594 44.269531 46.449219 43.945312 46.449219 Z M 43.945312 46.449219 " fill-opacity="1" fill-rule="nonzero"/><path fill="#053768" d="M 26.332031 40.40625 C 24.375 40.40625 22.777344 38.808594 22.777344 36.851562 C 22.777344 34.894531 24.375 33.300781 26.332031 33.300781 C 28.289062 33.300781 29.882812 34.894531 29.882812 36.851562 C 29.882812 38.808594 28.289062 40.40625 26.332031 40.40625 Z M 26.332031 35.566406 C 25.621094 35.566406 25.042969 36.144531 25.042969 36.851562 C 25.042969 37.5625 25.621094 38.140625 26.332031 38.140625 C 27.039062 38.140625 27.617188 37.5625 27.617188 36.851562 C 27.617188 36.144531 27.039062 35.566406 26.332031 35.566406 Z M 26.332031 35.566406 " fill-opacity="1" fill-rule="nonzero"/></svg>